<svg xmlns="http://www.w3.org/2000/svg" width="1283.24609375" height="773.09375" viewBox="-552.20703125 -270.19921875 1283.24609375 773.09375"><title>Neo4j Graph Visualization</title><desc>Created using Neo4j (http://www.neo4j.com/)</desc><g class="layer relationships"><g class="relationship" transform="translate(84.65824980145298 168.74680692295271) rotate(398.871913511948)"><path class="outline" fill="#DE9BF9" stroke="none" d="M 32.5 1.5 L 51.927488548429736 1.5 L 51.927488548429736 -1.5 L 32.5 -1.5 Z M 93.7441541978438 1.5 L 113.17164274627353 1.5 L 113.17164274627353 4.5 L 122.17164274627353 0 L 113.17164274627353 -4.5 L 113.17164274627353 -1.5 L 93.7441541978438 -1.5 Z"/><text text-anchor="middle" pointer-events="none" font-size="8px" fill="#000000" x="72.83582137313677" y="3" font-family="sans-serif">relatedto</text></g><g class="relationship" transform="translate(233.26737016274546 166.592559995842) rotate(539.1694950343068)"><path class="outline" fill="#DE9BF9" stroke="none" d="M 32.5 1.5 L 48.90403396975739 1.5 L 48.90403396975739 -1.5 L 32.5 -1.5 Z M 90.72069961917146 1.5 L 107.12473358892885 1.5 L 107.12473358892885 4.5 L 116.12473358892885 0 L 107.12473358892885 -4.5 L 107.12473358892885 -1.5 L 90.72069961917146 -1.5 Z"/><text text-anchor="middle" pointer-events="none" font-size="8px" fill="#000000" x="69.81236679446442" y="3" transform="rotate(180 69.81236679446442 0)" font-family="sans-serif">relatedto</text></g><g class="relationship" transform="translate(277.517422336546 231.42562516592105) rotate(198.00405067642976)"><path class="outline" fill="#DE9BF9" stroke="none" d="M 32.5 1.5 L 75.9860638242891 1.5 L 75.9860638242891 -1.5 L 32.5 -1.5 Z M 117.80272947370317 1.5 L 161.28879329799227 1.5 L 161.28879329799227 4.5 L 170.28879329799227 0 L 161.28879329799227 -4.5 L 161.28879329799227 -1.5 L 117.80272947370317 -1.5 Z"/><text text-anchor="middle" pointer-events="none" font-size="8px" fill="#000000" x="96.89439664899614" y="3" transform="rotate(180 96.89439664899614 0)" font-family="sans-serif">relatedto</text></g><g class="relationship" transform="translate(431.3755170903322 267.5207225928731) rotate(195.90136096291877)"><path class="outline" fill="#DE9BF9" stroke="none" d="M 32.5 1.5 L 154.84783895107202 1.5 L 154.84783895107202 -1.5 L 32.5 -1.5 Z M 196.66450460048608 1.5 L 319.0123435515581 1.5 L 319.0123435515581 4.5 L 328.0123435515581 0 L 319.0123435515581 -4.5 L 319.0123435515581 -1.5 L 196.66450460048608 -1.5 Z"/><text text-anchor="middle" pointer-events="none" font-size="8px" fill="#000000" x="175.75617177577905" y="3" transform="rotate(180 175.75617177577905 0)" font-family="sans-serif">relatedto</text></g><g class="relationship" transform="translate(330.3941645533779 38.43530354567416) rotate(512.0634025543771)"><path class="outline" fill="#DE9BF9" stroke="none" d="M 32.5 1.5 L 113.66649210005403 1.5 L 113.66649210005403 -1.5 L 32.5 -1.5 Z M 155.4831577494681 1.5 L 236.64964984952212 1.5 L 236.64964984952212 4.5 L 245.64964984952212 0 L 236.64964984952212 -4.5 L 236.64964984952212 -1.5 L 155.4831577494681 -1.5 Z"/><text text-anchor="middle" pointer-events="none" font-size="8px" fill="#000000" x="134.57482492476106" y="3" transform="rotate(180 134.57482492476106 0)" font-family="sans-serif">relatedto</text></g><g class="relationship" transform="translate(187.87178601782713 -7.420374461032882) rotate(480.36535583733075)"><path class="outline" fill="#DE9BF9" stroke="none" d="M 32.5 1.5 L 76.6797539619828 1.5 L 76.6797539619828 -1.5 L 32.5 -1.5 Z M 118.49641961139686 1.5 L 162.67617357337966 1.5 L 162.67617357337966 4.5 L 171.67617357337966 0 L 162.67617357337966 -4.5 L 162.67617357337966 -1.5 L 118.49641961139686 -1.5 Z"/><text text-anchor="middle" pointer-events="none" font-size="8px" fill="#000000" x="97.58808678668983" y="3" transform="rotate(180 97.58808678668983 0)" font-family="sans-serif">relatedto</text></g><g class="relationship" transform="translate(256.916325859581 -24.491714486225753) rotate(491.7146800691959)"><path class="outline" fill="#DE9BF9" stroke="none" d="M 32.5 1.5 L 104.02695112411945 1.5 L 104.02695112411945 -1.5 L 32.5 -1.5 Z M 145.8436167735335 1.5 L 217.37056789765296 1.5 L 217.37056789765296 4.5 L 226.37056789765296 0 L 217.37056789765296 -4.5 L 217.37056789765296 -1.5 L 145.8436167735335 -1.5 Z"/><text text-anchor="middle" pointer-events="none" font-size="8px" fill="#000000" x="124.93528394882648" y="3" transform="rotate(180 124.93528394882648 0)" font-family="sans-serif">relatedto</text></g><g class="relationship" transform="translate(103.73859290512621 263.309518114302) rotate(258.5923404340084)"><path class="outline" fill="#DE9BF9" stroke="none" d="M 32.5 1.5 L 32.82590205264286 1.5 L 32.82590205264286 -1.5 L 32.5 -1.5 Z M 54.64256865573124 1.5 L 54.9684707083741 1.5 L 54.9684707083741 4.5 L 63.9684707083741 0 L 54.9684707083741 -4.5 L 54.9684707083741 -1.5 L 54.64256865573124 -1.5 Z"/><text text-anchor="middle" pointer-events="none" font-size="8px" fill="#000000" x="43.73423535418705" y="3" transform="rotate(180 43.73423535418705 0)" font-family="sans-serif">re…</text></g><g class="relationship" transform="translate(-35.00746902832774 190.35241801825748) rotate(349.76552146635674)"><path class="outline" fill="#DE9BF9" stroke="none" d="M 32.5 1.5 L 35.39192764728785 1.5 L 35.39192764728785 -1.5 L 32.5 -1.5 Z M 77.2085932967019 1.5 L 80.10052094398976 1.5 L 80.10052094398976 4.5 L 89.10052094398976 0 L 80.10052094398976 -4.5 L 80.10052094398976 -1.5 L 77.2085932967019 -1.5 Z"/><text text-anchor="middle" pointer-events="none" font-size="8px" fill="#000000" x="56.30026047199488" y="3" font-family="sans-serif">relatedto</text></g><g class="relationship" transform="translate(-38.715703293447206 304.52969867978743) rotate(271.8601907044535)"><path class="outline" fill="#DE9BF9" stroke="none" d="M 32.5 1.5 L 34.210407499387514 1.5 L 34.210407499387514 -1.5 L 32.5 -1.5 Z M 71.02707505615021 1.5 L 72.73748255553772 1.5 L 72.73748255553772 4.5 L 81.73748255553772 0 L 72.73748255553772 -4.5 L 72.73748255553772 -1.5 L 71.02707505615021 -1.5 Z"/><text text-anchor="middle" pointer-events="none" font-size="8px" fill="#000000" x="52.61874127776886" y="3" font-family="sans-serif">relate…</text></g><g class="relationship" transform="translate(-199.90947025600312 284.6796432063073) rotate(330.2295847038389)"><path class="outline" fill="#DE9BF9" stroke="none" d="M 32.5 1.5 L 69.5788971335475 1.5 L 69.5788971335475 -1.5 L 32.5 -1.5 Z M 111.39556278296156 1.5 L 148.47445991650906 1.5 L 148.47445991650906 4.5 L 157.47445991650906 0 L 148.47445991650906 -4.5 L 148.47445991650906 -1.5 L 111.39556278296156 -1.5 Z"/><text text-anchor="middle" pointer-events="none" font-size="8px" fill="#000000" x="90.48722995825453" y="3" font-family="sans-serif">relatedto</text></g><g class="relationship" transform="translate(-24.378081825677654 69.49102635948186) rotate(455.02605570627736)"><path class="outline" fill="#DE9BF9" stroke="none" d="M 32.5 1.5 L 35.25561830361921 1.5 L 35.25561830361921 -1.5 L 32.5 -1.5 Z M 77.07228395303326 1.5 L 79.82790225665248 1.5 L 79.82790225665248 4.5 L 88.82790225665248 0 L 79.82790225665248 -4.5 L 79.82790225665248 -1.5 L 77.07228395303326 -1.5 Z"/><text text-anchor="middle" pointer-events="none" font-size="8px" fill="#000000" x="56.16395112832624" y="3" transform="rotate(180 56.16395112832624 0)" font-family="sans-serif">relatedto</text></g><g class="relationship" transform="translate(-337.41510613103367 139.44394660506356) rotate(369.55579606872243)"><path class="outline" fill="#DE9BF9" stroke="none" d="M 32.5 1.5 L 127.92304967710655 1.5 L 127.92304967710655 -1.5 L 32.5 -1.5 Z M 169.7397153265206 1.5 L 265.16276500362716 1.5 L 265.16276500362716 4.5 L 274.16276500362716 0 L 265.16276500362716 -4.5 L 265.16276500362716 -1.5 L 169.7397153265206 -1.5 Z"/><text text-anchor="middle" pointer-events="none" font-size="8px" fill="#000000" x="148.83138250181358" y="3" font-family="sans-serif">relatedto</text></g><g class="relationship" transform="translate(-337.41510613103367 139.44394660506356) rotate(479.3452348734277)"><path class="outline" fill="#A5ABB6" stroke="none" d="M 32.5 0.5 L 63.34939841775672 0.5 L 63.34939841775672 -0.5 L 32.5 -0.5 Z M 100.34939841775672 0.5 L 131.19879683551343 0.5 L 131.19879683551343 3.5 L 138.19879683551343 0 L 131.19879683551343 -3.5 L 131.19879683551343 -0.5 L 100.34939841775672 -0.5 Z"/><text text-anchor="middle" pointer-events="none" font-size="8px" fill="#000000" x="81.84939841775672" y="3" transform="rotate(180 81.84939841775672 0)" font-family="sans-serif">worksin</text></g><g class="relationship" transform="translate(-337.41510613103367 139.44394660506356) rotate(501.8995032921731)"><path class="outline" fill="#A5ABB6" stroke="none" d="M 32.5 0.5 L 49.661925871116836 0.5 L 49.661925871116836 -0.5 L 32.5 -0.5 Z M 86.66192587111684 0.5 L 103.82385174223367 0.5 L 103.82385174223367 3.5 L 110.82385174223367 0 L 103.82385174223367 -3.5 L 103.82385174223367 -0.5 L 86.66192587111684 -0.5 Z"/><text text-anchor="middle" pointer-events="none" font-size="8px" fill="#000000" x="68.16192587111684" y="3" transform="rotate(180 68.16192587111684 0)" font-family="sans-serif">worksin</text></g><g class="relationship" transform="translate(-337.41510613103367 139.44394660506356) rotate(473.7838427685197)"><path class="outline" fill="#A5ABB6" stroke="none" d="M 32.5 0.5 L 91.65862040306065 0.5 L 91.65862040306065 -0.5 L 32.5 -0.5 Z M 128.65862040306064 0.5 L 187.8172408061213 0.5 L 187.8172408061213 3.5 L 194.8172408061213 0 L 187.8172408061213 -3.5 L 187.8172408061213 -0.5 L 128.65862040306064 -0.5 Z"/><text text-anchor="middle" pointer-events="none" font-size="8px" fill="#000000" x="110.15862040306065" y="3" transform="rotate(180 110.15862040306065 0)" font-family="sans-serif">worksin</text></g><g class="relationship" transform="translate(-337.41510613103367 139.44394660506356) rotate(458.7358562587691)"><path class="outline" fill="#A5ABB6" stroke="none" d="M 32.5 0.5 L 85.05497634038748 0.5 L 85.05497634038748 -0.5 L 32.5 -0.5 Z M 122.05497634038748 0.5 L 174.60995268077497 0.5 L 174.60995268077497 3.5 L 181.60995268077497 0 L 174.60995268077497 -3.5 L 174.60995268077497 -0.5 L 122.05497634038748 -0.5 Z"/><text text-anchor="middle" pointer-events="none" font-size="8px" fill="#000000" x="103.55497634038748" y="3" transform="rotate(180 103.55497634038748 0)" font-family="sans-serif">worksin</text></g><g class="relationship" transform="translate(-337.41510613103367 139.44394660506356) rotate(455.8021087741217)"><path class="outline" fill="#A5ABB6" stroke="none" d="M 32.5 0.5 L 47.303465816147465 0.5 L 47.303465816147465 -0.5 L 32.5 -0.5 Z M 84.30346581614747 0.5 L 99.10693163229493 0.5 L 99.10693163229493 3.5 L 106.10693163229493 0 L 99.10693163229493 -3.5 L 99.10693163229493 -0.5 L 84.30346581614747 -0.5 Z"/><text text-anchor="middle" pointer-events="none" font-size="8px" fill="#000000" x="65.80346581614747" y="3" transform="rotate(180 65.80346581614747 0)" font-family="sans-serif">worksin</text></g><g class="relationship" transform="translate(-337.41510613103367 139.44394660506356) rotate(317.692375590035)"><path class="outline" fill="#A5ABB6" stroke="none" d="M 32.5 0.5 L 45.242736947583566 0.5 L 45.242736947583566 -0.5 L 32.5 -0.5 Z M 82.24273694758357 0.5 L 94.98547389516713 0.5 L 94.98547389516713 3.5 L 101.98547389516713 0 L 94.98547389516713 -3.5 L 94.98547389516713 -0.5 L 82.24273694758357 -0.5 Z"/><text text-anchor="middle" pointer-events="none" font-size="8px" fill="#000000" x="63.742736947583566" y="3" font-family="sans-serif">worksin</text></g><g class="relationship" transform="translate(-337.41510613103367 139.44394660506356) rotate(442.110605292943)"><path class="outline" fill="#A5ABB6" stroke="none" d="M 32.5 0.5 L 73.15718797186592 0.5 L 73.15718797186592 -0.5 L 32.5 -0.5 Z M 110.15718797186592 0.5 L 150.81437594373185 0.5 L 150.81437594373185 3.5 L 157.81437594373185 0 L 150.81437594373185 -3.5 L 150.81437594373185 -0.5 L 110.15718797186592 -0.5 Z"/><text text-anchor="middle" pointer-events="none" font-size="8px" fill="#000000" x="91.65718797186592" y="3" font-family="sans-serif">worksin</text></g><g class="relationship" transform="translate(-337.41510613103367 139.44394660506356) rotate(271.8665035889261)"><path class="outline" fill="#A5ABB6" stroke="none" d="M 32.5 0.5 L 84.06933721288871 0.5 L 84.06933721288871 -0.5 L 32.5 -0.5 Z M 121.06933721288871 0.5 L 172.63867442577742 0.5 L 172.63867442577742 3.5 L 179.63867442577742 0 L 172.63867442577742 -3.5 L 172.63867442577742 -0.5 L 121.06933721288871 -0.5 Z"/><text text-anchor="middle" pointer-events="none" font-size="8px" fill="#000000" x="102.56933721288871" y="3" font-family="sans-serif">worksin</text></g><g class="relationship" transform="translate(-337.41510613103367 139.44394660506356) rotate(289.2938082256692)"><path class="outline" fill="#A5ABB6" stroke="none" d="M 32.5 0.5 L 65.5007511747699 0.5 L 65.5007511747699 -0.5 L 32.5 -0.5 Z M 102.5007511747699 0.5 L 135.5015023495398 0.5 L 135.5015023495398 3.5 L 142.5015023495398 0 L 135.5015023495398 -3.5 L 135.5015023495398 -0.5 L 102.5007511747699 -0.5 Z"/><text text-anchor="middle" pointer-events="none" font-size="8px" fill="#000000" x="84.0007511747699" y="3" font-family="sans-serif">worksin</text></g><g class="relationship" transform="translate(-337.41510613103367 139.44394660506356) rotate(257.1527794710656)"><path class="outline" fill="#A5ABB6" stroke="none" d="M 32.5 0.5 L 95.30099055113557 0.5 L 95.30099055113557 -0.5 L 32.5 -0.5 Z M 132.30099055113556 0.5 L 195.10198110227114 0.5 L 195.10198110227114 3.5 L 202.10198110227114 0 L 195.10198110227114 -3.5 L 195.10198110227114 -0.5 L 132.30099055113556 -0.5 Z"/><text text-anchor="middle" pointer-events="none" font-size="8px" fill="#000000" x="113.80099055113557" y="3" transform="rotate(180 113.80099055113557 0)" font-family="sans-serif">worksin</text></g><g class="relationship" transform="translate(-337.41510613103367 139.44394660506356) rotate(267.05980222435716)"><path class="outline" fill="#A5ABB6" stroke="none" d="M 32.5 0.5 L 49.21918774511499 0.5 L 49.21918774511499 -0.5 L 32.5 -0.5 Z M 86.219187745115 0.5 L 102.93837549022999 0.5 L 102.93837549022999 3.5 L 109.93837549022999 0 L 102.93837549022999 -3.5 L 102.93837549022999 -0.5 L 86.219187745115 -0.5 Z"/><text text-anchor="middle" pointer-events="none" font-size="8px" fill="#000000" x="67.719187745115" y="3" transform="rotate(180 67.719187745115 0)" font-family="sans-serif">worksin</text></g><g class="relationship" transform="translate(-337.41510613103367 139.44394660506356) rotate(240.84134053423475)"><path class="outline" fill="#A5ABB6" stroke="none" d="M 32.5 0.5 L 98.18730281211855 0.5 L 98.18730281211855 -0.5 L 32.5 -0.5 Z M 135.18730281211856 0.5 L 200.8746056242371 0.5 L 200.8746056242371 3.5 L 207.8746056242371 0 L 200.8746056242371 -3.5 L 200.8746056242371 -0.5 L 135.18730281211856 -0.5 Z"/><text text-anchor="middle" pointer-events="none" font-size="8px" fill="#000000" x="116.68730281211855" y="3" transform="rotate(180 116.68730281211855 0)" font-family="sans-serif">worksin</text></g><g class="relationship" transform="translate(-337.41510613103367 139.44394660506356) rotate(247.69657401300094)"><path class="outline" fill="#A5ABB6" stroke="none" d="M 32.5 0.5 L 69.79073847420248 0.5 L 69.79073847420248 -0.5 L 32.5 -0.5 Z M 106.79073847420248 0.5 L 144.08147694840497 0.5 L 144.08147694840497 3.5 L 151.08147694840497 0 L 144.08147694840497 -3.5 L 144.08147694840497 -0.5 L 106.79073847420248 -0.5 Z"/><text text-anchor="middle" pointer-events="none" font-size="8px" fill="#000000" x="88.29073847420248" y="3" transform="rotate(180 88.29073847420248 0)" font-family="sans-serif">worksin</text></g><g class="relationship" transform="translate(-337.41510613103367 139.44394660506356) rotate(523.6435813051881)"><path class="outline" fill="#A5ABB6" stroke="none" d="M 32.5 0.5 L 63.9589638089853 0.5 L 63.9589638089853 -0.5 L 32.5 -0.5 Z M 100.9589638089853 0.5 L 132.4179276179706 0.5 L 132.4179276179706 3.5 L 139.4179276179706 0 L 132.4179276179706 -3.5 L 132.4179276179706 -0.5 L 100.9589638089853 -0.5 Z"/><text text-anchor="middle" pointer-events="none" font-size="8px" fill="#000000" x="82.4589638089853" y="3" transform="rotate(180 82.4589638089853 0)" font-family="sans-serif">worksin</text></g><g class="relationship" transform="translate(-337.41510613103367 139.44394660506356) rotate(501.6271493296855)"><path class="outline" fill="#A5ABB6" stroke="none" d="M 32.5 0.5 L 82.61585528368919 0.5 L 82.61585528368919 -0.5 L 32.5 -0.5 Z M 119.61585528368919 0.5 L 169.73171056737837 0.5 L 169.73171056737837 3.5 L 176.73171056737837 0 L 169.73171056737837 -3.5 L 169.73171056737837 -0.5 L 119.61585528368919 -0.5 Z"/><text text-anchor="middle" pointer-events="none" font-size="8px" fill="#000000" x="101.11585528368919" y="3" transform="rotate(180 101.11585528368919 0)" font-family="sans-serif">worksin</text></g><g class="relationship" transform="translate(-337.41510613103367 139.44394660506356) rotate(226.88198964560956)"><path class="outline" fill="#A5ABB6" stroke="none" d="M 32.5 0.5 L 89.3400914074456 0.5 L 89.3400914074456 -0.5 L 32.5 -0.5 Z M 126.3400914074456 0.5 L 183.1801828148912 0.5 L 183.1801828148912 3.5 L 190.1801828148912 0 L 183.1801828148912 -3.5 L 183.1801828148912 -0.5 L 126.3400914074456 -0.5 Z"/><text text-anchor="middle" pointer-events="none" font-size="8px" fill="#000000" x="107.8400914074456" y="3" transform="rotate(180 107.8400914074456 0)" font-family="sans-serif">worksin</text></g><g class="relationship" transform="translate(-337.41510613103367 139.44394660506356) rotate(193.81806888306198)"><path class="outline" fill="#A5ABB6" stroke="none" d="M 32.5 0.5 L 45.90131840541424 0.5 L 45.90131840541424 -0.5 L 32.5 -0.5 Z M 82.90131840541423 0.5 L 96.30263681082847 0.5 L 96.30263681082847 3.5 L 103.30263681082847 0 L 96.30263681082847 -3.5 L 96.30263681082847 -0.5 L 82.90131840541423 -0.5 Z"/><text text-anchor="middle" pointer-events="none" font-size="8px" fill="#000000" x="64.40131840541423" y="3" transform="rotate(180 64.40131840541423 0)" font-family="sans-serif">worksin</text></g><g class="relationship" transform="translate(-337.41510613103367 139.44394660506356) rotate(211.4963518260745)"><path class="outline" fill="#A5ABB6" stroke="none" d="M 32.5 0.5 L 99.05587777736856 0.5 L 99.05587777736856 -0.5 L 32.5 -0.5 Z M 136.05587777736855 0.5 L 202.61175555473713 0.5 L 202.61175555473713 3.5 L 209.61175555473713 0 L 202.61175555473713 -3.5 L 202.61175555473713 -0.5 L 136.05587777736855 -0.5 Z"/><text text-anchor="middle" pointer-events="none" font-size="8px" fill="#000000" x="117.55587777736856" y="3" transform="rotate(180 117.55587777736856 0)" font-family="sans-serif">worksin</text></g><g class="relationship" transform="translate(-337.41510613103367 139.44394660506356) rotate(208.05451953286536)"><path class="outline" fill="#A5ABB6" stroke="none" d="M 32.5 0.5 L 73.07334158338593 0.5 L 73.07334158338593 -0.5 L 32.5 -0.5 Z M 110.07334158338593 0.5 L 150.64668316677185 0.5 L 150.64668316677185 3.5 L 157.64668316677185 0 L 150.64668316677185 -3.5 L 150.64668316677185 -0.5 L 110.07334158338593 -0.5 Z"/><text text-anchor="middle" pointer-events="none" font-size="8px" fill="#000000" x="91.57334158338593" y="3" transform="rotate(180 91.57334158338593 0)" font-family="sans-serif">worksin</text></g><g class="relationship" transform="translate(-337.41510613103367 139.44394660506356) rotate(227.55108412248296)"><path class="outline" fill="#A5ABB6" stroke="none" d="M 32.5 0.5 L 55.65143223403456 0.5 L 55.65143223403456 -0.5 L 32.5 -0.5 Z M 92.65143223403456 0.5 L 115.80286446806912 0.5 L 115.80286446806912 3.5 L 122.80286446806912 0 L 115.80286446806912 -3.5 L 115.80286446806912 -0.5 L 92.65143223403456 -0.5 Z"/><text text-anchor="middle" pointer-events="none" font-size="8px" fill="#000000" x="74.15143223403456" y="3" transform="rotate(180 74.15143223403456 0)" font-family="sans-serif">worksin</text></g><g class="relationship" transform="translate(-337.41510613103367 139.44394660506356) rotate(192.44380613965802)"><path class="outline" fill="#A5ABB6" stroke="none" d="M 32.5 0.5 L 97.12049061784272 0.5 L 97.12049061784272 -0.5 L 32.5 -0.5 Z M 134.12049061784273 0.5 L 198.74098123568544 0.5 L 198.74098123568544 3.5 L 205.74098123568544 0 L 198.74098123568544 -3.5 L 198.74098123568544 -0.5 L 134.12049061784273 -0.5 Z"/><text text-anchor="middle" pointer-events="none" font-size="8px" fill="#000000" x="115.62049061784272" y="3" transform="rotate(180 115.62049061784272 0)" font-family="sans-serif">worksin</text></g><g class="relationship" transform="translate(-337.41510613103367 139.44394660506356) rotate(184.01550020971797)"><path class="outline" fill="#A5ABB6" stroke="none" d="M 32.5 0.5 L 75.12595727249992 0.5 L 75.12595727249992 -0.5 L 32.5 -0.5 Z M 112.12595727249992 0.5 L 154.75191454499983 0.5 L 154.75191454499983 3.5 L 161.75191454499983 0 L 154.75191454499983 -3.5 L 154.75191454499983 -0.5 L 112.12595727249992 -0.5 Z"/><text text-anchor="middle" pointer-events="none" font-size="8px" fill="#000000" x="93.62595727249992" y="3" transform="rotate(180 93.62595727249992 0)" font-family="sans-serif">worksin</text></g><g class="relationship" transform="translate(-337.41510613103367 139.44394660506356) rotate(514.7489832864777)"><path class="outline" fill="#A5ABB6" stroke="none" d="M 32.5 0.5 L 95.85539104301876 0.5 L 95.85539104301876 -0.5 L 32.5 -0.5 Z M 132.85539104301876 0.5 L 196.2107820860375 0.5 L 196.2107820860375 3.5 L 203.2107820860375 0 L 196.2107820860375 -3.5 L 196.2107820860375 -0.5 L 132.85539104301876 -0.5 Z"/><text text-anchor="middle" pointer-events="none" font-size="8px" fill="#000000" x="114.35539104301876" y="3" transform="rotate(180 114.35539104301876 0)" font-family="sans-serif">worksin</text></g><g class="relationship" transform="translate(-337.41510613103367 139.44394660506356) rotate(421.82858663562183)"><path class="outline" fill="#A5ABB6" stroke="none" d="M 32.5 0.5 L 54.479380437720614 0.5 L 54.479380437720614 -0.5 L 32.5 -0.5 Z M 91.47938043772061 0.5 L 113.45876087544123 0.5 L 113.45876087544123 3.5 L 120.45876087544123 0 L 113.45876087544123 -3.5 L 113.45876087544123 -0.5 L 91.47938043772061 -0.5 Z"/><text text-anchor="middle" pointer-events="none" font-size="8px" fill="#000000" x="72.97938043772061" y="3" font-family="sans-serif">worksin</text></g><g class="relationship" transform="translate(-337.41510613103367 139.44394660506356) rotate(390.77996366321105)"><path class="outline" fill="#A5ABB6" stroke="none" d="M 32.5 0.5 L 49.961868421336135 0.5 L 49.961868421336135 -0.5 L 32.5 -0.5 Z M 86.96186842133613 0.5 L 104.42373684267227 0.5 L 104.42373684267227 3.5 L 111.42373684267227 0 L 104.42373684267227 -3.5 L 104.42373684267227 -0.5 L 86.96186842133613 -0.5 Z"/><text text-anchor="middle" pointer-events="none" font-size="8px" fill="#000000" x="68.46186842133613" y="3" font-family="sans-serif">worksin</text></g><g class="relationship" transform="translate(-337.41510613103367 139.44394660506356) rotate(531.4889677208103)"><path class="outline" fill="#A5ABB6" stroke="none" d="M 32.5 0.5 L 95.08290736832545 0.5 L 95.08290736832545 -0.5 L 32.5 -0.5 Z M 132.08290736832544 0.5 L 194.6658147366509 0.5 L 194.6658147366509 3.5 L 201.6658147366509 0 L 194.6658147366509 -3.5 L 194.6658147366509 -0.5 L 132.08290736832544 -0.5 Z"/><text text-anchor="middle" pointer-events="none" font-size="8px" fill="#000000" x="113.58290736832545" y="3" transform="rotate(180 113.58290736832545 0)" font-family="sans-serif">worksin</text></g><g class="relationship" transform="translate(-337.41510613103367 139.44394660506356) rotate(489.0458670812758)"><path class="outline" fill="#A5ABB6" stroke="none" d="M 32.5 0.5 L 97.1996689503486 0.5 L 97.1996689503486 -0.5 L 32.5 -0.5 Z M 134.1996689503486 0.5 L 198.8993379006972 0.5 L 198.8993379006972 3.5 L 205.8993379006972 0 L 198.8993379006972 -3.5 L 198.8993379006972 -0.5 L 134.1996689503486 -0.5 Z"/><text text-anchor="middle" pointer-events="none" font-size="8px" fill="#000000" x="115.6996689503486" y="3" transform="rotate(180 115.6996689503486 0)" font-family="sans-serif">worksin</text></g><g class="relationship" transform="translate(-199.90947025600312 284.6796432063073) rotate(203.8706919290545)"><path class="outline" fill="#A5ABB6" stroke="none" d="M 32.5 0.5 L 34.54852769544719 0.5 L 34.54852769544719 -0.5 L 32.5 -0.5 Z M 71.54852769544719 0.5 L 73.59705539089438 0.5 L 73.59705539089438 3.5 L 80.59705539089438 0 L 73.59705539089438 -3.5 L 73.59705539089438 -0.5 L 71.54852769544719 -0.5 Z"/><text text-anchor="middle" pointer-events="none" font-size="8px" fill="#000000" x="53.04852769544719" y="3" transform="rotate(180 53.04852769544719 0)" font-family="sans-serif">worksin</text></g><g class="relationship" transform="translate(-199.90947025600312 284.6796432063073) rotate(246.36688565048428)"><path class="outline" fill="#A5ABB6" stroke="none" d="M 32.5 0.5 L 38.499160115569836 0.5 L 38.499160115569836 -0.5 L 32.5 -0.5 Z M 75.49916011556984 0.5 L 81.49832023113967 0.5 L 81.49832023113967 3.5 L 88.49832023113967 0 L 81.49832023113967 -3.5 L 81.49832023113967 -0.5 L 75.49916011556984 -0.5 Z"/><text text-anchor="middle" pointer-events="none" font-size="8px" fill="#000000" x="56.999160115569836" y="3" transform="rotate(180 56.999160115569836 0)" font-family="sans-serif">worksin</text></g><g class="relationship" transform="translate(-199.90947025600312 284.6796432063073) rotate(450.77950034387925)"><path class="outline" fill="#A5ABB6" stroke="none" d="M 32.5 0.5 L 64.8932606788664 0.5 L 64.8932606788664 -0.5 L 32.5 -0.5 Z M 101.8932606788664 0.5 L 134.2865213577328 0.5 L 134.2865213577328 3.5 L 141.2865213577328 0 L 134.2865213577328 -3.5 L 134.2865213577328 -0.5 L 101.8932606788664 -0.5 Z"/><text text-anchor="middle" pointer-events="none" font-size="8px" fill="#000000" x="83.3932606788664" y="3" transform="rotate(180 83.3932606788664 0)" font-family="sans-serif">worksin</text></g><g class="relationship" transform="translate(-199.90947025600312 284.6796432063073) rotate(455.83452531834683)"><path class="outline" fill="#A5ABB6" stroke="none" d="M 32.5 0.5 L 93.4189923592663 0.5 L 93.4189923592663 -0.5 L 32.5 -0.5 Z M 130.4189923592663 0.5 L 191.3379847185326 0.5 L 191.3379847185326 3.5 L 198.3379847185326 0 L 191.3379847185326 -3.5 L 191.3379847185326 -0.5 L 130.4189923592663 -0.5 Z"/><text text-anchor="middle" pointer-events="none" font-size="8px" fill="#000000" x="111.9189923592663" y="3" transform="rotate(180 111.9189923592663 0)" font-family="sans-serif">worksin</text></g><g class="relationship" transform="translate(-199.90947025600312 284.6796432063073) rotate(437.5959798420251)"><path class="outline" fill="#A5ABB6" stroke="none" d="M 32.5 0.5 L 91.28244711671282 0.5 L 91.28244711671282 -0.5 L 32.5 -0.5 Z M 128.28244711671283 0.5 L 187.06489423342563 0.5 L 187.06489423342563 3.5 L 194.06489423342563 0 L 187.06489423342563 -3.5 L 187.06489423342563 -0.5 L 128.28244711671283 -0.5 Z"/><text text-anchor="middle" pointer-events="none" font-size="8px" fill="#000000" x="109.78244711671282" y="3" font-family="sans-serif">worksin</text></g><g class="relationship" transform="translate(-199.90947025600312 284.6796432063073) rotate(423.5017539908193)"><path class="outline" fill="#A5ABB6" stroke="none" d="M 32.5 0.5 L 72.97054511571909 0.5 L 72.97054511571909 -0.5 L 32.5 -0.5 Z M 109.97054511571909 0.5 L 150.44109023143818 0.5 L 150.44109023143818 3.5 L 157.44109023143818 0 L 150.44109023143818 -3.5 L 150.44109023143818 -0.5 L 109.97054511571909 -0.5 Z"/><text text-anchor="middle" pointer-events="none" font-size="8px" fill="#000000" x="91.47054511571909" y="3" font-family="sans-serif">worksin</text></g><g class="relationship" transform="translate(-199.90947025600312 284.6796432063073) rotate(472.7007284114556)"><path class="outline" fill="#A5ABB6" stroke="none" d="M 32.5 0.5 L 82.73885934127914 0.5 L 82.73885934127914 -0.5 L 32.5 -0.5 Z M 119.73885934127914 0.5 L 169.97771868255828 0.5 L 169.97771868255828 3.5 L 176.97771868255828 0 L 169.97771868255828 -3.5 L 169.97771868255828 -0.5 L 119.73885934127914 -0.5 Z"/><text text-anchor="middle" pointer-events="none" font-size="8px" fill="#000000" x="101.23885934127914" y="3" transform="rotate(180 101.23885934127914 0)" font-family="sans-serif">worksin</text></g><g class="relationship" transform="translate(-24.378081825677654 69.49102635948186) rotate(229.2745111100648)"><path class="outline" fill="#A5ABB6" stroke="none" d="M 32.5 0.5 L 60.26492922871756 0.5 L 60.26492922871756 -0.5 L 32.5 -0.5 Z M 97.26492922871756 0.5 L 125.02985845743513 0.5 L 125.02985845743513 3.5 L 132.02985845743513 0 L 125.02985845743513 -3.5 L 125.02985845743513 -0.5 L 97.26492922871756 -0.5 Z"/><text text-anchor="middle" pointer-events="none" font-size="8px" fill="#000000" x="78.76492922871756" y="3" transform="rotate(180 78.76492922871756 0)" font-family="sans-serif">worksin</text></g><g class="relationship" transform="translate(-24.378081825677654 69.49102635948186) rotate(201.87683197872633)"><path class="outline" fill="#A5ABB6" stroke="none" d="M 32.5 0.5 L 42.9074200014271 0.5 L 42.9074200014271 -0.5 L 32.5 -0.5 Z M 79.9074200014271 0.5 L 90.3148400028542 0.5 L 90.3148400028542 3.5 L 97.3148400028542 0 L 90.3148400028542 -3.5 L 90.3148400028542 -0.5 L 79.9074200014271 -0.5 Z"/><text text-anchor="middle" pointer-events="none" font-size="8px" fill="#000000" x="61.4074200014271" y="3" transform="rotate(180 61.4074200014271 0)" font-family="sans-serif">worksin</text></g><g class="relationship" transform="translate(-24.378081825677654 69.49102635948186) rotate(241.61326575483184)"><path class="outline" fill="#A5ABB6" stroke="none" d="M 32.5 0.5 L 83.62058739129029 0.5 L 83.62058739129029 -0.5 L 32.5 -0.5 Z M 120.62058739129029 0.5 L 171.74117478258057 0.5 L 171.74117478258057 3.5 L 178.74117478258057 0 L 171.74117478258057 -3.5 L 171.74117478258057 -0.5 L 120.62058739129029 -0.5 Z"/><text text-anchor="middle" pointer-events="none" font-size="8px" fill="#000000" x="102.12058739129029" y="3" transform="rotate(180 102.12058739129029 0)" font-family="sans-serif">worksin</text></g><g class="relationship" transform="translate(-24.378081825677654 69.49102635948186) rotate(257.601343415429)"><path class="outline" fill="#A5ABB6" stroke="none" d="M 32.5 0.5 L 52.50056194828963 0.5 L 52.50056194828963 -0.5 L 32.5 -0.5 Z M 89.50056194828963 0.5 L 109.50112389657926 0.5 L 109.50112389657926 3.5 L 116.50112389657926 0 L 109.50112389657926 -3.5 L 109.50112389657926 -0.5 L 89.50056194828963 -0.5 Z"/><text text-anchor="middle" pointer-events="none" font-size="8px" fill="#000000" x="71.00056194828963" y="3" transform="rotate(180 71.00056194828963 0)" font-family="sans-serif">worksin</text></g><g class="relationship" transform="translate(-24.378081825677654 69.49102635948186) rotate(431.6661161911448)"><path class="outline" fill="#A5ABB6" stroke="none" d="M 32.5 0.5 L 42.0143791936803 0.5 L 42.0143791936803 -0.5 L 32.5 -0.5 Z M 79.0143791936803 0.5 L 88.5287583873606 0.5 L 88.5287583873606 3.5 L 95.5287583873606 0 L 88.5287583873606 -3.5 L 88.5287583873606 -0.5 L 79.0143791936803 -0.5 Z"/><text text-anchor="middle" pointer-events="none" font-size="8px" fill="#000000" x="60.5143791936803" y="3" font-family="sans-serif">worksin</text></g><g class="relationship" transform="translate(-24.378081825677654 69.49102635948186) rotate(292.0961754773746)"><path class="outline" fill="#A5ABB6" stroke="none" d="M 32.5 0.5 L 50.36396404868947 0.5 L 50.36396404868947 -0.5 L 32.5 -0.5 Z M 87.36396404868947 0.5 L 105.22792809737894 0.5 L 105.22792809737894 3.5 L 112.22792809737894 0 L 105.22792809737894 -3.5 L 105.22792809737894 -0.5 L 87.36396404868947 -0.5 Z"/><text text-anchor="middle" pointer-events="none" font-size="8px" fill="#000000" x="68.86396404868947" y="3" font-family="sans-serif">worksin</text></g><g class="relationship" transform="translate(-24.378081825677654 69.49102635948186) rotate(274.32191948152774)"><path class="outline" fill="#A5ABB6" stroke="none" d="M 32.5 0.5 L 77.18876885822581 0.5 L 77.18876885822581 -0.5 L 32.5 -0.5 Z M 114.18876885822581 0.5 L 158.87753771645163 0.5 L 158.87753771645163 3.5 L 165.87753771645163 0 L 158.87753771645163 -3.5 L 158.87753771645163 -0.5 L 114.18876885822581 -0.5 Z"/><text text-anchor="middle" pointer-events="none" font-size="8px" fill="#000000" x="95.68876885822581" y="3" font-family="sans-serif">worksin</text></g><g class="relationship" transform="translate(-24.378081825677654 69.49102635948186) rotate(258.2800810854383)"><path class="outline" fill="#A5ABB6" stroke="none" d="M 32.5 0.5 L 90.65051307740944 0.5 L 90.65051307740944 -0.5 L 32.5 -0.5 Z M 127.65051307740944 0.5 L 185.80102615481889 0.5 L 185.80102615481889 3.5 L 192.80102615481889 0 L 185.80102615481889 -3.5 L 185.80102615481889 -0.5 L 127.65051307740944 -0.5 Z"/><text text-anchor="middle" pointer-events="none" font-size="8px" fill="#000000" x="109.15051307740944" y="3" transform="rotate(180 109.15051307740944 0)" font-family="sans-serif">worksin</text></g><g class="relationship" transform="translate(169.6560189436521 -125.65786303242504) rotate(409.2207675800469)"><path class="outline" fill="#DE9BF9" stroke="none" d="M 32.5 1.5 L 41.39164991244225 1.5 L 41.39164991244225 -1.5 L 32.5 -1.5 Z M 83.20831556185631 1.5 L 92.09996547429856 1.5 L 92.09996547429856 4.5 L 101.09996547429856 0 L 92.09996547429856 -4.5 L 92.09996547429856 -1.5 L 83.20831556185631 -1.5 Z"/><text text-anchor="middle" pointer-events="none" font-size="8px" fill="#000000" x="62.29998273714928" y="3" font-family="sans-serif">relatedto</text></g><g class="relationship" transform="translate(330.3941645533779 38.43530354567416) rotate(457.3985613017238)"><path class="outline" fill="#A5ABB6" stroke="none" d="M 32.5 0.5 L 50.43611946295946 0.5 L 50.43611946295946 -0.5 L 32.5 -0.5 Z M 87.43611946295945 0.5 L 105.37223892591892 0.5 L 105.37223892591892 3.5 L 112.37223892591892 0 L 105.37223892591892 -3.5 L 105.37223892591892 -0.5 L 87.43611946295945 -0.5 Z"/><text text-anchor="middle" pointer-events="none" font-size="8px" fill="#000000" x="68.93611946295945" y="3" transform="rotate(180 68.93611946295945 0)" font-family="sans-serif">worksin</text></g><g class="relationship" transform="translate(330.3941645533779 38.43530354567416) rotate(422.72945236132523)"><path class="outline" fill="#A5ABB6" stroke="none" d="M 32.5 0.5 L 69.91364279943112 0.5 L 69.91364279943112 -0.5 L 32.5 -0.5 Z M 106.91364279943112 0.5 L 144.32728559886223 0.5 L 144.32728559886223 3.5 L 151.32728559886223 0 L 144.32728559886223 -3.5 L 144.32728559886223 -0.5 L 106.91364279943112 -0.5 Z"/><text text-anchor="middle" pointer-events="none" font-size="8px" fill="#000000" x="88.41364279943112" y="3" font-family="sans-serif">worksin</text></g><g class="relationship" transform="translate(330.3941645533779 38.43530354567416) rotate(323.42966352434814)"><path class="outline" fill="#A5ABB6" stroke="none" d="M 32.5 0.5 L 47.69673815660115 0.5 L 47.69673815660115 -0.5 L 32.5 -0.5 Z M 84.69673815660116 0.5 L 99.8934763132023 0.5 L 99.8934763132023 3.5 L 106.8934763132023 0 L 99.8934763132023 -3.5 L 99.8934763132023 -0.5 L 84.69673815660116 -0.5 Z"/><text text-anchor="middle" pointer-events="none" font-size="8px" fill="#000000" x="66.19673815660116" y="3" font-family="sans-serif">worksin</text></g><g class="relationship" transform="translate(330.3941645533779 38.43530354567416) rotate(440.68589074519434)"><path class="outline" fill="#A5ABB6" stroke="none" d="M 32.5 0.5 L 76.92842938376425 0.5 L 76.92842938376425 -0.5 L 32.5 -0.5 Z M 113.92842938376425 0.5 L 158.3568587675285 0.5 L 158.3568587675285 3.5 L 165.3568587675285 0 L 158.3568587675285 -3.5 L 158.3568587675285 -0.5 L 113.92842938376425 -0.5 Z"/><text text-anchor="middle" pointer-events="none" font-size="8px" fill="#000000" x="95.42842938376425" y="3" font-family="sans-serif">worksin</text></g><g class="relationship" transform="translate(330.3941645533779 38.43530354567416) rotate(362.86472191034665)"><path class="outline" fill="#A5ABB6" stroke="none" d="M 32.5 0.5 L 50.36887429253177 0.5 L 50.36887429253177 -0.5 L 32.5 -0.5 Z M 87.36887429253177 0.5 L 105.23774858506354 0.5 L 105.23774858506354 3.5 L 112.23774858506354 0 L 105.23774858506354 -3.5 L 105.23774858506354 -0.5 L 87.36887429253177 -0.5 Z"/><text text-anchor="middle" pointer-events="none" font-size="8px" fill="#000000" x="68.86887429253177" y="3" font-family="sans-serif">worksin</text></g><g class="relationship" transform="translate(330.3941645533779 38.43530354567416) rotate(235.27917281231657)"><path class="outline" fill="#A5ABB6" stroke="none" d="M 32.5 0.5 L 59.03533921421831 0.5 L 59.03533921421831 -0.5 L 32.5 -0.5 Z M 96.03533921421831 0.5 L 122.57067842843662 0.5 L 122.57067842843662 3.5 L 129.57067842843662 0 L 122.57067842843662 -3.5 L 122.57067842843662 -0.5 L 96.03533921421831 -0.5 Z"/><text text-anchor="middle" pointer-events="none" font-size="8px" fill="#000000" x="77.53533921421831" y="3" transform="rotate(180 77.53533921421831 0)" font-family="sans-serif">worksin</text></g><g class="relationship" transform="translate(497.8597395337289 181.39739014470604) rotate(220.48673765507715)"><path class="outline" fill="#DE9BF9" stroke="none" d="M 32.5 1.5 L 84.68580531199015 1.5 L 84.68580531199015 -1.5 L 32.5 -1.5 Z M 126.50247096140421 1.5 L 178.68827627339437 1.5 L 178.68827627339437 4.5 L 187.68827627339437 0 L 178.68827627339437 -4.5 L 178.68827627339437 -1.5 L 126.50247096140421 -1.5 Z"/><text text-anchor="middle" pointer-events="none" font-size="8px" fill="#000000" x="105.59413813669718" y="3" transform="rotate(180 105.59413813669718 0)" font-family="sans-serif">relatedto</text></g><g class="relationship" transform="translate(294.11644851939684 466.39343409230037) rotate(246.06307068596965)"><path class="outline" fill="#DE9BF9" stroke="none" d="M 32.5 1.5 L 84.31769768276996 1.5 L 84.31769768276996 -1.5 L 32.5 -1.5 Z M 126.13436333218402 1.5 L 177.95206101495398 1.5 L 177.95206101495398 4.5 L 186.95206101495398 0 L 177.95206101495398 -4.5 L 177.95206101495398 -1.5 L 126.13436333218402 -1.5 Z"/><text text-anchor="middle" pointer-events="none" font-size="8px" fill="#000000" x="105.22603050747699" y="3" transform="rotate(180 105.22603050747699 0)" font-family="sans-serif">relatedto</text></g><g class="relationship" transform="translate(175.02917826250177 347.35714550777044) rotate(229.69484009235146)"><path class="outline" fill="#DE9BF9" stroke="none" d="M 32.5 1.5 L 34.696909236844874 1.5 L 34.696909236844874 -1.5 L 32.5 -1.5 Z M 66.51357679360757 1.5 L 68.71048603045244 1.5 L 68.71048603045244 4.5 L 77.71048603045244 0 L 68.71048603045244 -4.5 L 68.71048603045244 -1.5 L 66.51357679360757 -1.5 Z"/><text text-anchor="middle" pointer-events="none" font-size="8px" fill="#000000" x="50.60524301522622" y="3" transform="rotate(180 50.60524301522622 0)" font-family="sans-serif">relat…</text></g><g class="relationship" transform="translate(31.76092060606112 368.55167448268463) rotate(304.3691745158437)"><path class="outline" fill="#DE9BF9" stroke="none" d="M 32.5 1.5 L 38.34254322154566 1.5 L 38.34254322154566 -1.5 L 32.5 -1.5 Z M 80.15920887095973 1.5 L 86.00175209250538 1.5 L 86.00175209250538 4.5 L 95.00175209250538 0 L 86.00175209250538 -4.5 L 86.00175209250538 -1.5 L 80.15920887095973 -1.5 Z"/><text text-anchor="middle" pointer-events="none" font-size="8px" fill="#000000" x="59.25087604625269" y="3" font-family="sans-serif">relatedto</text></g><g class="relationship" transform="translate(350.4726754047519 -45.212738993860384) rotate(203.98422671088724)"><path class="outline" fill="#DE9BF9" stroke="none" d="M 32.5 1.5 L 73.54377836468528 1.5 L 73.54377836468528 -1.5 L 32.5 -1.5 Z M 115.36044401409934 1.5 L 156.40422237878462 1.5 L 156.40422237878462 4.5 L 165.40422237878462 0 L 156.40422237878462 -4.5 L 156.40422237878462 -1.5 L 115.36044401409934 -1.5 Z"/><text text-anchor="middle" pointer-events="none" font-size="8px" fill="#000000" x="94.45211118939231" y="3" transform="rotate(180 94.45211118939231 0)" font-family="sans-serif">relatedto</text></g><g class="relationship" transform="translate(516.9027029692818 -34.48731438084664) rotate(455.04095340606995)"><path class="outline" fill="#DE9BF9" stroke="none" d="M 32.5 1.5 L 82.95314569106095 1.5 L 82.95314569106095 -1.5 L 32.5 -1.5 Z M 124.76981134047502 1.5 L 175.22295703153597 1.5 L 175.22295703153597 4.5 L 184.22295703153597 0 L 175.22295703153597 -4.5 L 175.22295703153597 -1.5 L 124.76981134047502 -1.5 Z"/><text text-anchor="middle" pointer-events="none" font-size="8px" fill="#000000" x="103.86147851576798" y="3" transform="rotate(180 103.86147851576798 0)" font-family="sans-serif">relatedto</text></g><g class="relationship" transform="translate(516.9027029692818 -34.48731438084664) rotate(536.296590583972)"><path class="outline" fill="#A5ABB6" stroke="none" d="M 32.5 0.5 L 40.17310471519504 0.5 L 40.17310471519504 -0.5 L 32.5 -0.5 Z M 77.17310471519504 0.5 L 84.84620943039008 0.5 L 84.84620943039008 3.5 L 91.84620943039008 0 L 84.84620943039008 -3.5 L 84.84620943039008 -0.5 L 77.17310471519504 -0.5 Z"/><text text-anchor="middle" pointer-events="none" font-size="8px" fill="#000000" x="58.67310471519504" y="3" transform="rotate(180 58.67310471519504 0)" font-family="sans-serif">worksin</text></g><g class="relationship" transform="translate(516.9027029692818 -34.48731438084664) rotate(491.38431885424257)"><path class="outline" fill="#A5ABB6" stroke="none" d="M 32.5 0.5 L 44.250841364813255 0.5 L 44.250841364813255 -0.5 L 32.5 -0.5 Z M 81.25084136481325 0.5 L 93.00168272962651 0.5 L 93.00168272962651 3.5 L 100.00168272962651 0 L 93.00168272962651 -3.5 L 93.00168272962651 -0.5 L 81.25084136481325 -0.5 Z"/><text text-anchor="middle" pointer-events="none" font-size="8px" fill="#000000" x="62.750841364813255" y="3" transform="rotate(180 62.750841364813255 0)" font-family="sans-serif">worksin</text></g><g class="relationship" transform="translate(516.9027029692818 -34.48731438084664) rotate(430.5044481011149)"><path class="outline" fill="#A5ABB6" stroke="none" d="M 32.5 0.5 L 85.44188620302654 0.5 L 85.44188620302654 -0.5 L 32.5 -0.5 Z M 122.44188620302654 0.5 L 175.38377240605308 0.5 L 175.38377240605308 3.5 L 182.38377240605308 0 L 175.38377240605308 -3.5 L 175.38377240605308 -0.5 L 122.44188620302654 -0.5 Z"/><text text-anchor="middle" pointer-events="none" font-size="8px" fill="#000000" x="103.94188620302654" y="3" font-family="sans-serif">worksin</text></g><g class="relationship" transform="translate(516.9027029692818 -34.48731438084664) rotate(433.49784104118635)"><path class="outline" fill="#A5ABB6" stroke="none" d="M 32.5 0.5 L 56.82127052229987 0.5 L 56.82127052229987 -0.5 L 32.5 -0.5 Z M 93.82127052229987 0.5 L 118.14254104459974 0.5 L 118.14254104459974 3.5 L 125.14254104459974 0 L 118.14254104459974 -3.5 L 118.14254104459974 -0.5 L 93.82127052229987 -0.5 Z"/><text text-anchor="middle" pointer-events="none" font-size="8px" fill="#000000" x="75.32127052229987" y="3" font-family="sans-serif">worksin</text></g><g class="relationship" transform="translate(516.9027029692818 -34.48731438084664) rotate(408.20656470292204)"><path class="outline" fill="#A5ABB6" stroke="none" d="M 32.5 0.5 L 65.52743241066175 0.5 L 65.52743241066175 -0.5 L 32.5 -0.5 Z M 102.52743241066175 0.5 L 135.5548648213235 0.5 L 135.5548648213235 3.5 L 142.5548648213235 0 L 135.5548648213235 -3.5 L 135.5548648213235 -0.5 L 102.52743241066175 -0.5 Z"/><text text-anchor="middle" pointer-events="none" font-size="8px" fill="#000000" x="84.02743241066175" y="3" font-family="sans-serif">worksin</text></g><g class="relationship" transform="translate(516.9027029692818 -34.48731438084664) rotate(416.8321277551968)"><path class="outline" fill="#A5ABB6" stroke="none" d="M 32.5 0.5 L 97.01023017894458 0.5 L 97.01023017894458 -0.5 L 32.5 -0.5 Z M 134.0102301789446 0.5 L 198.52046035788916 0.5 L 198.52046035788916 3.5 L 205.52046035788916 0 L 198.52046035788916 -3.5 L 198.52046035788916 -0.5 L 134.0102301789446 -0.5 Z"/><text text-anchor="middle" pointer-events="none" font-size="8px" fill="#000000" x="115.51023017894458" y="3" font-family="sans-serif">worksin</text></g><g class="relationship" transform="translate(516.9027029692818 -34.48731438084664) rotate(384.5176499591272)"><path class="outline" fill="#A5ABB6" stroke="none" d="M 32.5 0.5 L 46.01603314230472 0.5 L 46.01603314230472 -0.5 L 32.5 -0.5 Z M 83.01603314230472 0.5 L 96.53206628460944 0.5 L 96.53206628460944 3.5 L 103.53206628460944 0 L 96.53206628460944 -3.5 L 96.53206628460944 -0.5 L 83.01603314230472 -0.5 Z"/><text text-anchor="middle" pointer-events="none" font-size="8px" fill="#000000" x="64.51603314230472" y="3" font-family="sans-serif">worksin</text></g><g class="relationship" transform="translate(516.9027029692818 -34.48731438084664) rotate(384.9730827323124)"><path class="outline" fill="#A5ABB6" stroke="none" d="M 32.5 0.5 L 75.4515198518037 0.5 L 75.4515198518037 -0.5 L 32.5 -0.5 Z M 112.4515198518037 0.5 L 155.4030397036074 0.5 L 155.4030397036074 3.5 L 162.4030397036074 0 L 155.4030397036074 -3.5 L 155.4030397036074 -0.5 L 112.4515198518037 -0.5 Z"/><text text-anchor="middle" pointer-events="none" font-size="8px" fill="#000000" x="93.9515198518037" y="3" font-family="sans-serif">worksin</text></g><g class="relationship" transform="translate(516.9027029692818 -34.48731438084664) rotate(288.44763284967644)"><path class="outline" fill="#A5ABB6" stroke="none" d="M 32.5 0.5 L 73.73663209584002 0.5 L 73.73663209584002 -0.5 L 32.5 -0.5 Z M 110.73663209584002 0.5 L 151.97326419168004 0.5 L 151.97326419168004 3.5 L 158.97326419168004 0 L 151.97326419168004 -3.5 L 151.97326419168004 -0.5 L 110.73663209584002 -0.5 Z"/><text text-anchor="middle" pointer-events="none" font-size="8px" fill="#000000" x="92.23663209584002" y="3" font-family="sans-serif">worksin</text></g><g class="relationship" transform="translate(516.9027029692818 -34.48731438084664) rotate(369.09519663700286)"><path class="outline" fill="#A5ABB6" stroke="none" d="M 32.5 0.5 L 95.62500708823266 0.5 L 95.62500708823266 -0.5 L 32.5 -0.5 Z M 132.62500708823268 0.5 L 195.75001417646533 0.5 L 195.75001417646533 3.5 L 202.75001417646533 0 L 195.75001417646533 -3.5 L 195.75001417646533 -0.5 L 132.62500708823268 -0.5 Z"/><text text-anchor="middle" pointer-events="none" font-size="8px" fill="#000000" x="114.12500708823266" y="3" font-family="sans-serif">worksin</text></g><g class="relationship" transform="translate(516.9027029692818 -34.48731438084664) rotate(253.93072177199156)"><path class="outline" fill="#A5ABB6" stroke="none" d="M 32.5 0.5 L 63.05271388164287 0.5 L 63.05271388164287 -0.5 L 32.5 -0.5 Z M 100.05271388164287 0.5 L 130.60542776328575 0.5 L 130.60542776328575 3.5 L 137.60542776328575 0 L 130.60542776328575 -3.5 L 130.60542776328575 -0.5 L 100.05271388164287 -0.5 Z"/><text text-anchor="middle" pointer-events="none" font-size="8px" fill="#000000" x="81.55271388164287" y="3" transform="rotate(180 81.55271388164287 0)" font-family="sans-serif">worksin</text></g><g class="relationship" transform="translate(516.9027029692818 -34.48731438084664) rotate(338.453033681737)"><path class="outline" fill="#A5ABB6" stroke="none" d="M 32.5 0.5 L 50.65430294961057 0.5 L 50.65430294961057 -0.5 L 32.5 -0.5 Z M 87.65430294961057 0.5 L 105.80860589922113 0.5 L 105.80860589922113 3.5 L 112.80860589922113 0 L 105.80860589922113 -3.5 L 105.80860589922113 -0.5 L 87.65430294961057 -0.5 Z"/><text text-anchor="middle" pointer-events="none" font-size="8px" fill="#000000" x="69.15430294961057" y="3" font-family="sans-serif">worksin</text></g><g class="relationship" transform="translate(516.9027029692818 -34.48731438084664) rotate(275.4896329582569)"><path class="outline" fill="#A5ABB6" stroke="none" d="M 32.5 0.5 L 50.042844437336704 0.5 L 50.042844437336704 -0.5 L 32.5 -0.5 Z M 87.0428444373367 0.5 L 104.58568887467341 0.5 L 104.58568887467341 3.5 L 111.58568887467341 0 L 104.58568887467341 -3.5 L 104.58568887467341 -0.5 L 87.0428444373367 -0.5 Z"/><text text-anchor="middle" pointer-events="none" font-size="8px" fill="#000000" x="68.5428444373367" y="3" font-family="sans-serif">worksin</text></g><g class="relationship" transform="translate(516.9027029692818 -34.48731438084664) rotate(328.1971248862173)"><path class="outline" fill="#A5ABB6" stroke="none" d="M 32.5 0.5 L 76.38287878096045 0.5 L 76.38287878096045 -0.5 L 32.5 -0.5 Z M 113.38287878096045 0.5 L 157.2657575619209 0.5 L 157.2657575619209 3.5 L 164.2657575619209 0 L 157.2657575619209 -3.5 L 157.2657575619209 -0.5 L 113.38287878096045 -0.5 Z"/><text text-anchor="middle" pointer-events="none" font-size="8px" fill="#000000" x="94.88287878096045" y="3" font-family="sans-serif">worksin</text></g><g class="relationship" transform="translate(516.9027029692818 -34.48731438084664) rotate(338.1455815646143)"><path class="outline" fill="#A5ABB6" stroke="none" d="M 32.5 0.5 L 97.3620973413798 0.5 L 97.3620973413798 -0.5 L 32.5 -0.5 Z M 134.3620973413798 0.5 L 199.2241946827596 0.5 L 199.2241946827596 3.5 L 206.2241946827596 0 L 199.2241946827596 -3.5 L 199.2241946827596 -0.5 L 134.3620973413798 -0.5 Z"/><text text-anchor="middle" pointer-events="none" font-size="8px" fill="#000000" x="115.8620973413798" y="3" font-family="sans-serif">worksin</text></g><g class="relationship" transform="translate(516.9027029692818 -34.48731438084664) rotate(308.1929996045162)"><path class="outline" fill="#A5ABB6" stroke="none" d="M 32.5 0.5 L 58.43150271307451 0.5 L 58.43150271307451 -0.5 L 32.5 -0.5 Z M 95.43150271307451 0.5 L 121.36300542614902 0.5 L 121.36300542614902 3.5 L 128.36300542614902 0 L 121.36300542614902 -3.5 L 121.36300542614902 -0.5 L 95.43150271307451 -0.5 Z"/><text text-anchor="middle" pointer-events="none" font-size="8px" fill="#000000" x="76.93150271307451" y="3" font-family="sans-serif">worksin</text></g><g class="relationship" transform="translate(516.9027029692818 -34.48731438084664) rotate(268.0631036209927)"><path class="outline" fill="#A5ABB6" stroke="none" d="M 32.5 0.5 L 88.08025070288828 0.5 L 88.08025070288828 -0.5 L 32.5 -0.5 Z M 125.08025070288828 0.5 L 180.66050140577656 0.5 L 180.66050140577656 3.5 L 187.66050140577656 0 L 180.66050140577656 -3.5 L 180.66050140577656 -0.5 L 125.08025070288828 -0.5 Z"/><text text-anchor="middle" pointer-events="none" font-size="8px" fill="#000000" x="106.58025070288828" y="3" transform="rotate(180 106.58025070288828 0)" font-family="sans-serif">worksin</text></g><g class="relationship" transform="translate(516.9027029692818 -34.48731438084664) rotate(482.7217175992631)"><path class="outline" fill="#A5ABB6" stroke="none" d="M 32.5 0.5 L 72.92180990549697 0.5 L 72.92180990549697 -0.5 L 32.5 -0.5 Z M 109.92180990549697 0.5 L 150.34361981099394 0.5 L 150.34361981099394 3.5 L 157.34361981099394 0 L 150.34361981099394 -3.5 L 150.34361981099394 -0.5 L 109.92180990549697 -0.5 Z"/><text text-anchor="middle" pointer-events="none" font-size="8px" fill="#000000" x="91.42180990549697" y="3" transform="rotate(180 91.42180990549697 0)" font-family="sans-serif">worksin</text></g><g class="relationship" transform="translate(516.9027029692818 -34.48731438084664) rotate(302.23818335596303)"><path class="outline" fill="#A5ABB6" stroke="none" d="M 32.5 0.5 L 94.27682313831582 0.5 L 94.27682313831582 -0.5 L 32.5 -0.5 Z M 131.27682313831582 0.5 L 193.05364627663164 0.5 L 193.05364627663164 3.5 L 200.05364627663164 0 L 193.05364627663164 -3.5 L 193.05364627663164 -0.5 L 131.27682313831582 -0.5 Z"/><text text-anchor="middle" pointer-events="none" font-size="8px" fill="#000000" x="112.77682313831582" y="3" font-family="sans-serif">worksin</text></g><g class="relationship" transform="translate(516.9027029692818 -34.48731438084664) rotate(284.4743832520709)"><path class="outline" fill="#A5ABB6" stroke="none" d="M 32.5 0.5 L 98.94526214988005 0.5 L 98.94526214988005 -0.5 L 32.5 -0.5 Z M 135.94526214988005 0.5 L 202.3905242997601 0.5 L 202.3905242997601 3.5 L 209.3905242997601 0 L 202.3905242997601 -3.5 L 202.3905242997601 -0.5 L 135.94526214988005 -0.5 Z"/><text text-anchor="middle" pointer-events="none" font-size="8px" fill="#000000" x="117.44526214988005" y="3" font-family="sans-serif">worksin</text></g><g class="relationship" transform="translate(516.9027029692818 -34.48731438084664) rotate(360.4139989141073)"><path class="outline" fill="#A5ABB6" stroke="none" d="M 32.5 0.5 L 66.63431437129375 0.5 L 66.63431437129375 -0.5 L 32.5 -0.5 Z M 103.63431437129375 0.5 L 137.7686287425875 0.5 L 137.7686287425875 3.5 L 144.7686287425875 0 L 137.7686287425875 -3.5 L 137.7686287425875 -0.5 L 103.63431437129375 -0.5 Z"/><text text-anchor="middle" pointer-events="none" font-size="8px" fill="#000000" x="85.13431437129375" y="3" font-family="sans-serif">worksin</text></g><g class="relationship" transform="translate(516.9027029692818 -34.48731438084664) rotate(317.5750616304807)"><path class="outline" fill="#A5ABB6" stroke="none" d="M 32.5 0.5 L 96.81422818309368 0.5 L 96.81422818309368 -0.5 L 32.5 -0.5 Z M 133.8142281830937 0.5 L 198.12845636618735 0.5 L 198.12845636618735 3.5 L 205.12845636618735 0 L 198.12845636618735 -3.5 L 198.12845636618735 -0.5 L 133.8142281830937 -0.5 Z"/><text text-anchor="middle" pointer-events="none" font-size="8px" fill="#000000" x="115.31422818309368" y="3" font-family="sans-serif">worksin</text></g><g class="relationship" transform="translate(516.9027029692818 -34.48731438084664) rotate(386.1272985941232)"><path class="outline" fill="#A5ABB6" stroke="none" d="M 32.5 0.5 L 100.9478418732493 0.5 L 100.9478418732493 -0.5 L 32.5 -0.5 Z M 137.9478418732493 0.5 L 206.3956837464986 0.5 L 206.3956837464986 3.5 L 213.3956837464986 0 L 206.3956837464986 -3.5 L 206.3956837464986 -0.5 L 137.9478418732493 -0.5 Z"/><text text-anchor="middle" pointer-events="none" font-size="8px" fill="#000000" x="119.4478418732493" y="3" font-family="sans-serif">worksin</text></g><g class="relationship" transform="translate(516.9027029692818 -34.48731438084664) rotate(353.30352633333644)"><path class="outline" fill="#A5ABB6" stroke="none" d="M 32.5 0.5 L 93.62290443634976 0.5 L 93.62290443634976 -0.5 L 32.5 -0.5 Z M 130.62290443634976 0.5 L 191.7458088726995 0.5 L 191.7458088726995 3.5 L 198.7458088726995 0 L 191.7458088726995 -3.5 L 191.7458088726995 -0.5 L 130.62290443634976 -0.5 Z"/><text text-anchor="middle" pointer-events="none" font-size="8px" fill="#000000" x="112.12290443634976" y="3" font-family="sans-serif">worksin</text></g><g class="relationship" transform="translate(516.9027029692818 -34.48731438084664) rotate(402.06852263204865)"><path class="outline" fill="#A5ABB6" stroke="none" d="M 32.5 0.5 L 96.68848353734093 0.5 L 96.68848353734093 -0.5 L 32.5 -0.5 Z M 133.68848353734091 0.5 L 197.87696707468186 0.5 L 197.87696707468186 3.5 L 204.87696707468186 0 L 197.87696707468186 -3.5 L 197.87696707468186 -0.5 L 133.68848353734091 -0.5 Z"/><text text-anchor="middle" pointer-events="none" font-size="8px" fill="#000000" x="115.18848353734093" y="3" font-family="sans-serif">worksin</text></g><g class="relationship" transform="translate(350.4726754047519 -45.212738993860384) rotate(421.89407964239126)"><path class="outline" fill="#A5ABB6" stroke="none" d="M 32.5 0.5 L 75.24944413511476 0.5 L 75.24944413511476 -0.5 L 32.5 -0.5 Z M 112.24944413511476 0.5 L 154.99888827022951 0.5 L 154.99888827022951 3.5 L 161.99888827022951 0 L 154.99888827022951 -3.5 L 154.99888827022951 -0.5 L 112.24944413511476 -0.5 Z"/><text text-anchor="middle" pointer-events="none" font-size="8px" fill="#000000" x="93.74944413511476" y="3" font-family="sans-serif">worksin</text></g><g class="relationship" transform="translate(120.04877724042748 438.517399614126) rotate(301.0949398726313)"><path class="outline" fill="#DE9BF9" stroke="none" d="M 32.5 1.5 L 32.82003371791574 1.5 L 32.82003371791574 -1.5 L 32.5 -1.5 Z M 64.63670127467844 1.5 L 64.95673499259418 1.5 L 64.95673499259418 4.5 L 73.95673499259418 0 L 64.95673499259418 -4.5 L 64.95673499259418 -1.5 L 64.63670127467844 -1.5 Z"/><text text-anchor="middle" pointer-events="none" font-size="8px" fill="#000000" x="48.72836749629709" y="3" font-family="sans-serif">relat…</text></g><g class="relationship" transform="translate(349.31985308044153 362.6599021106048) rotate(521.69249025815)"><path class="outline" fill="#DE9BF9" stroke="none" d="M 32.5 1.5 L 95.33890952924303 1.5 L 95.33890952924303 -1.5 L 32.5 -1.5 Z M 137.1555751786571 1.5 L 199.9944847079001 1.5 L 199.9944847079001 4.5 L 208.9944847079001 0 L 199.9944847079001 -4.5 L 199.9944847079001 -1.5 L 137.1555751786571 -1.5 Z"/><text text-anchor="middle" pointer-events="none" font-size="8px" fill="#000000" x="116.24724235395006" y="3" transform="rotate(180 116.24724235395006 0)" font-family="sans-serif">relatedto</text></g><g class="relationship" transform="translate(349.31985308044153 362.6599021106048) rotate(287.0328349691524)"><path class="outline" fill="#A5ABB6" stroke="none" d="M 32.5 0.5 L 128.0100500177823 0.5 L 128.0100500177823 -0.5 L 32.5 -0.5 Z M 165.0100500177823 0.5 L 260.5201000355646 0.5 L 260.5201000355646 3.5 L 267.5201000355646 0 L 260.5201000355646 -3.5 L 260.5201000355646 -0.5 L 165.0100500177823 -0.5 Z"/><text text-anchor="middle" pointer-events="none" font-size="8px" fill="#000000" x="146.5100500177823" y="3" font-family="sans-serif">worksin</text></g><g class="relationship" transform="translate(350.4726754047519 -45.212738993860384) rotate(235.11155610688616)"><path class="outline" fill="#A5ABB6" stroke="none" d="M 32.5 0.5 L 92.50659431595409 0.5 L 92.50659431595409 -0.5 L 32.5 -0.5 Z M 129.5065943159541 0.5 L 189.51318863190818 0.5 L 189.51318863190818 3.5 L 196.51318863190818 0 L 189.51318863190818 -3.5 L 189.51318863190818 -0.5 L 129.5065943159541 -0.5 Z"/><text text-anchor="middle" pointer-events="none" font-size="8px" fill="#000000" x="111.00659431595409" y="3" transform="rotate(180 111.00659431595409 0)" font-family="sans-serif">worksin</text></g><g class="relationship" transform="translate(350.4726754047519 -45.212738993860384) rotate(278.5600022395755)"><path class="outline" fill="#A5ABB6" stroke="none" d="M 32.5 0.5 L 60.630152856611744 0.5 L 60.630152856611744 -0.5 L 32.5 -0.5 Z M 97.63015285661174 0.5 L 125.76030571322349 0.5 L 125.76030571322349 3.5 L 132.7603057132235 0 L 125.76030571322349 -3.5 L 125.76030571322349 -0.5 L 97.63015285661174 -0.5 Z"/><text text-anchor="middle" pointer-events="none" font-size="8px" fill="#000000" x="79.13015285661174" y="3" font-family="sans-serif">worksin</text></g><g class="relationship" transform="translate(350.4726754047519 -45.212738993860384) rotate(279.106480687263)"><path class="outline" fill="#A5ABB6" stroke="none" d="M 32.5 0.5 L 90.69453150583503 0.5 L 90.69453150583503 -0.5 L 32.5 -0.5 Z M 127.69453150583503 0.5 L 185.88906301167006 0.5 L 185.88906301167006 3.5 L 192.88906301167006 0 L 185.88906301167006 -3.5 L 185.88906301167006 -0.5 L 127.69453150583503 -0.5 Z"/><text text-anchor="middle" pointer-events="none" font-size="8px" fill="#000000" x="109.19453150583503" y="3" font-family="sans-serif">worksin</text></g><g class="relationship" transform="translate(350.4726754047519 -45.212738993860384) rotate(255.16889198024148)"><path class="outline" fill="#A5ABB6" stroke="none" d="M 32.5 0.5 L 67.80494400027406 0.5 L 67.80494400027406 -0.5 L 32.5 -0.5 Z M 104.80494400027406 0.5 L 140.10988800054812 0.5 L 140.10988800054812 3.5 L 147.10988800054812 0 L 140.10988800054812 -3.5 L 140.10988800054812 -0.5 L 104.80494400027406 -0.5 Z"/><text text-anchor="middle" pointer-events="none" font-size="8px" fill="#000000" x="86.30494400027406" y="3" transform="rotate(180 86.30494400027406 0)" font-family="sans-serif">worksin</text></g><g class="relationship" transform="translate(350.4726754047519 -45.212738993860384) rotate(230.864492507391)"><path class="outline" fill="#A5ABB6" stroke="none" d="M 32.5 0.5 L 65.20613705966413 0.5 L 65.20613705966413 -0.5 L 32.5 -0.5 Z M 102.20613705966413 0.5 L 134.91227411932826 0.5 L 134.91227411932826 3.5 L 141.91227411932826 0 L 134.91227411932826 -3.5 L 134.91227411932826 -0.5 L 102.20613705966413 -0.5 Z"/><text text-anchor="middle" pointer-events="none" font-size="8px" fill="#000000" x="83.70613705966413" y="3" transform="rotate(180 83.70613705966413 0)" font-family="sans-serif">worksin</text></g><g class="relationship" transform="translate(350.4726754047519 -45.212738993860384) rotate(264.9236550009135)"><path class="outline" fill="#A5ABB6" stroke="none" d="M 32.5 0.5 L 100.16901657219482 0.5 L 100.16901657219482 -0.5 L 32.5 -0.5 Z M 137.16901657219483 0.5 L 204.83803314438964 0.5 L 204.83803314438964 3.5 L 211.83803314438964 0 L 204.83803314438964 -3.5 L 204.83803314438964 -0.5 L 137.16901657219483 -0.5 Z"/><text text-anchor="middle" pointer-events="none" font-size="8px" fill="#000000" x="118.66901657219482" y="3" transform="rotate(180 118.66901657219482 0)" font-family="sans-serif">worksin</text></g><g class="relationship" transform="translate(350.4726754047519 -45.212738993860384) rotate(250.15710366785163)"><path class="outline" fill="#A5ABB6" stroke="none" d="M 32.5 0.5 L 99.97713237703182 0.5 L 99.97713237703182 -0.5 L 32.5 -0.5 Z M 136.9771323770318 0.5 L 204.45426475406364 0.5 L 204.45426475406364 3.5 L 211.45426475406364 0 L 204.45426475406364 -3.5 L 204.45426475406364 -0.5 L 136.9771323770318 -0.5 Z"/><text text-anchor="middle" pointer-events="none" font-size="8px" fill="#000000" x="118.47713237703182" y="3" transform="rotate(180 118.47713237703182 0)" font-family="sans-serif">worksin</text></g></g><g class="layer nodes"><g class="node" transform="translate(205.07799392354124,265.81586633635004)"><circle class="outline" cx="0" cy="0" r="32.5" fill="#68BDF6" stroke="#5CA8DB" stroke-width="2px"/><text text-anchor="middle" pointer-events="none" y="0" font-size="10px" fill="#FFFFFF" font-family="sans-serif"> Baldeo Das</text><text text-anchor="middle" pointer-events="none" y="10" font-size="10px" fill="#FFFFFF" font-family="sans-serif"> Birla</text></g><g class="node" transform="translate(84.65824980145298,168.74680692295271)"><circle class="outline" cx="0" cy="0" r="32.5" fill="#68BDF6" stroke="#5CA8DB" stroke-width="2px"/><text text-anchor="middle" pointer-events="none" y="5" font-size="10px" fill="#FFFFFF" font-family="sans-serif"> Ghanshyam</text></g><g class="node" transform="translate(233.26737016274546,166.592559995842)"><circle class="outline" cx="0" cy="0" r="32.5" fill="#68BDF6" stroke="#5CA8DB" stroke-width="2px"/><text text-anchor="middle" pointer-events="none" y="5" font-size="10px" fill="#FFFFFF" font-family="sans-serif"> Chandraka…</text></g><g class="node" transform="translate(277.517422336546,231.42562516592105)"><circle class="outline" cx="0" cy="0" r="32.5" fill="#68BDF6" stroke="#5CA8DB" stroke-width="2px"/><text text-anchor="middle" pointer-events="none" y="-5" font-size="10px" fill="#FFFFFF" font-family="sans-serif"> Anasuya</text><text text-anchor="middle" pointer-events="none" y="5" font-size="10px" fill="#FFFFFF" font-family="sans-serif"> Devi</text><text text-anchor="middle" pointer-events="none" y="15" font-size="10px" fill="#FFFFFF" font-family="sans-serif"> Tapuriah</text></g><g class="node" transform="translate(431.3755170903322,267.5207225928731)"><circle class="outline" cx="0" cy="0" r="32.5" fill="#68BDF6" stroke="#5CA8DB" stroke-width="2px"/><text text-anchor="middle" pointer-events="none" y="-5" font-size="10px" fill="#FFFFFF" font-family="sans-serif"> Shanti</text><text text-anchor="middle" pointer-events="none" y="5" font-size="10px" fill="#FFFFFF" font-family="sans-serif"> Devi</text><text text-anchor="middle" pointer-events="none" y="15" font-size="10px" fill="#FFFFFF" font-family="sans-serif"> Maheshw…</text></g><g class="node" transform="translate(330.3941645533779,38.43530354567416)"><circle class="outline" cx="0" cy="0" r="32.5" fill="#68BDF6" stroke="#5CA8DB" stroke-width="2px"/><text text-anchor="middle" pointer-events="none" y="-5" font-size="10px" fill="#FFFFFF" font-family="sans-serif"> BASANT</text><text text-anchor="middle" pointer-events="none" y="5" font-size="10px" fill="#FFFFFF" font-family="sans-serif"> KUMAR</text><text text-anchor="middle" pointer-events="none" y="15" font-size="10px" fill="#FFFFFF" font-family="sans-serif"> BIRLA</text></g><g class="node" transform="translate(187.87178601782713,-7.420374461032882)"><circle class="outline" cx="0" cy="0" r="32.5" fill="#68BDF6" stroke="#5CA8DB" stroke-width="2px"/><text text-anchor="middle" pointer-events="none" y="5" font-size="10px" fill="#FFFFFF" font-family="sans-serif"> Durga Devi</text></g><g class="node" transform="translate(256.916325859581,-24.491714486225753)"><circle class="outline" cx="0" cy="0" r="32.5" fill="#68BDF6" stroke="#5CA8DB" stroke-width="2px"/><text text-anchor="middle" pointer-events="none" y="0" font-size="10px" fill="#FFFFFF" font-family="sans-serif"> Braj Mohan</text><text text-anchor="middle" pointer-events="none" y="10" font-size="10px" fill="#FFFFFF" font-family="sans-serif"> Birla</text></g><g class="node" transform="translate(103.73859290512621,263.309518114302)"><circle class="outline" cx="0" cy="0" r="32.5" fill="#68BDF6" stroke="#5CA8DB" stroke-width="2px"/><text text-anchor="middle" pointer-events="none" y="0" font-size="10px" fill="#FFFFFF" font-family="sans-serif"> Rameshwar</text><text text-anchor="middle" pointer-events="none" y="10" font-size="10px" fill="#FFFFFF" font-family="sans-serif"> Das Birla</text></g><g class="node" transform="translate(-35.00746902832774,190.35241801825748)"><circle class="outline" cx="0" cy="0" r="32.5" fill="#68BDF6" stroke="#5CA8DB" stroke-width="2px"/><text text-anchor="middle" pointer-events="none" y="0" font-size="10px" fill="#FFFFFF" font-family="sans-serif"> Krishna</text><text text-anchor="middle" pointer-events="none" y="10" font-size="10px" fill="#FFFFFF" font-family="sans-serif"> Kumar Birla</text></g><g class="node" transform="translate(-38.715703293447206,304.52969867978743)"><circle class="outline" cx="0" cy="0" r="32.5" fill="#68BDF6" stroke="#5CA8DB" stroke-width="2px"/><text text-anchor="middle" pointer-events="none" y="0" font-size="10px" fill="#FFFFFF" font-family="sans-serif"> Manorama</text><text text-anchor="middle" pointer-events="none" y="10" font-size="10px" fill="#FFFFFF" font-family="sans-serif"> Devi</text></g><g class="node" transform="translate(-199.90947025600312,284.6796432063073)"><circle class="outline" cx="0" cy="0" r="32.5" fill="#68BDF6" stroke="#5CA8DB" stroke-width="2px"/><text text-anchor="middle" pointer-events="none" y="0" font-size="10px" fill="#FFFFFF" font-family="sans-serif"> NOPANY</text><text text-anchor="middle" pointer-events="none" y="10" font-size="10px" fill="#FFFFFF" font-family="sans-serif"> NANDINI</text></g><g class="node" transform="translate(-24.378081825677654,69.49102635948186)"><circle class="outline" cx="0" cy="0" r="32.5" fill="#68BDF6" stroke="#5CA8DB" stroke-width="2px"/><text text-anchor="middle" pointer-events="none" y="-5" font-size="10px" fill="#FFFFFF" font-family="sans-serif"> JYOTI</text><text text-anchor="middle" pointer-events="none" y="5" font-size="10px" fill="#FFFFFF" font-family="sans-serif"> KUMAR</text><text text-anchor="middle" pointer-events="none" y="15" font-size="10px" fill="#FFFFFF" font-family="sans-serif"> PODDAR</text></g><g class="node" transform="translate(-337.41510613103367,139.44394660506356)"><circle class="outline" cx="0" cy="0" r="32.5" fill="#68BDF6" stroke="#5CA8DB" stroke-width="2px"/><text text-anchor="middle" pointer-events="none" y="0" font-size="10px" fill="#FFFFFF" font-family="sans-serif"> SHOBHANA</text><text text-anchor="middle" pointer-events="none" y="10" font-size="10px" fill="#FFFFFF" font-family="sans-serif"> BHARTIA</text></g><g class="node" transform="translate(-407.5926544324816,264.26785108468073)"><circle class="outline" cx="0" cy="0" r="5" fill="#FF756E" stroke="#E06760" stroke-width="2px"/><text text-anchor="middle" pointer-events="none" y="5" font-size="10px" fill="#FFFFFF" font-family="sans-serif"/></g><g class="node" transform="translate(-428.56033187715326,210.9122084846967)"><circle class="outline" cx="0" cy="0" r="5" fill="#FF756E" stroke="#E06760" stroke-width="2px"/><text text-anchor="middle" pointer-events="none" y="5" font-size="10px" fill="#FFFFFF" font-family="sans-serif"/></g><g class="node" transform="translate(-417.99885458207075,322.2913945198525)"><circle class="outline" cx="0" cy="0" r="5" fill="#FF756E" stroke="#E06760" stroke-width="2px"/><text text-anchor="middle" pointer-events="none" y="5" font-size="10px" fill="#FFFFFF" font-family="sans-serif"/></g><g class="node" transform="translate(-365.75731372633925,323.88904333616586)"><circle class="outline" cx="0" cy="0" r="5" fill="#FF756E" stroke="#E06760" stroke-width="2px"/><text text-anchor="middle" pointer-events="none" y="5" font-size="10px" fill="#FFFFFF" font-family="sans-serif"/></g><g class="node" transform="translate(-348.6472295876,249.98167617917736)"><circle class="outline" cx="0" cy="0" r="5" fill="#FF756E" stroke="#E06760" stroke-width="2px"/><text text-anchor="middle" pointer-events="none" y="5" font-size="10px" fill="#FFFFFF" font-family="sans-serif"/></g><g class="node" transform="translate(-258.294905084883,67.43085466345764)"><circle class="outline" cx="0" cy="0" r="5" fill="#FF756E" stroke="#E06760" stroke-width="2px"/><text text-anchor="middle" pointer-events="none" y="5" font-size="10px" fill="#FFFFFF" font-family="sans-serif"/></g><g class="node" transform="translate(-315.06700901088874,300.7172660632288)"><circle class="outline" cx="0" cy="0" r="5" fill="#FF756E" stroke="#E06760" stroke-width="2px"/><text text-anchor="middle" pointer-events="none" y="5" font-size="10px" fill="#FFFFFF" font-family="sans-serif"/></g><g class="node" transform="translate(-331.4012635903061,-45.09676378590567)"><circle class="outline" cx="0" cy="0" r="5" fill="#FF756E" stroke="#E06760" stroke-width="2px"/><text text-anchor="middle" pointer-events="none" y="5" font-size="10px" fill="#FFFFFF" font-family="sans-serif"/></g><g class="node" transform="translate(-288.6787811507553,0.22662073364771496)"><circle class="outline" cx="0" cy="0" r="5" fill="#FF756E" stroke="#E06760" stroke-width="2px"/><text text-anchor="middle" pointer-events="none" y="5" font-size="10px" fill="#FFFFFF" font-family="sans-serif"/></g><g class="node" transform="translate(-383.46466555750004,-62.47353320565964)"><circle class="outline" cx="0" cy="0" r="5" fill="#FF756E" stroke="#E06760" stroke-width="2px"/><text text-anchor="middle" pointer-events="none" y="5" font-size="10px" fill="#FFFFFF" font-family="sans-serif"/></g><g class="node" transform="translate(-343.31071063938856,24.656874128176316)"><circle class="outline" cx="0" cy="0" r="5" fill="#FF756E" stroke="#E06760" stroke-width="2px"/><text text-anchor="middle" pointer-events="none" y="5" font-size="10px" fill="#FFFFFF" font-family="sans-serif"/></g><g class="node" transform="translate(-441.13393511114697,-46.45388080200562)"><circle class="outline" cx="0" cy="0" r="5" fill="#FF756E" stroke="#E06760" stroke-width="2px"/><text text-anchor="middle" pointer-events="none" y="5" font-size="10px" fill="#FFFFFF" font-family="sans-serif"/></g><g class="node" transform="translate(-396.6498186882752,-4.960611060740209)"><circle class="outline" cx="0" cy="0" r="5" fill="#FF756E" stroke="#E06760" stroke-width="2px"/><text text-anchor="middle" pointer-events="none" y="5" font-size="10px" fill="#FFFFFF" font-family="sans-serif"/></g><g class="node" transform="translate(-475.9882173004252,180.1137225855733)"><circle class="outline" cx="0" cy="0" r="5" fill="#FF756E" stroke="#E06760" stroke-width="2px"/><text text-anchor="middle" pointer-events="none" y="5" font-size="10px" fill="#FFFFFF" font-family="sans-serif"/></g><g class="node" transform="translate(-479.8905314112262,252.25869660245377)"><circle class="outline" cx="0" cy="0" r="5" fill="#FF756E" stroke="#E06760" stroke-width="2px"/><text text-anchor="middle" pointer-events="none" y="5" font-size="10px" fill="#FFFFFF" font-family="sans-serif"/></g><g class="node" transform="translate(-470.82139720026646,-3.027332138427368)"><circle class="outline" cx="0" cy="0" r="5" fill="#FF756E" stroke="#E06760" stroke-width="2px"/><text text-anchor="middle" pointer-events="none" y="5" font-size="10px" fill="#FFFFFF" font-family="sans-serif"/></g><g class="node" transform="translate(-442.5833571259956,113.5769768784235)"><circle class="outline" cx="0" cy="0" r="5" fill="#FF756E" stroke="#E06760" stroke-width="2px"/><text text-anchor="middle" pointer-events="none" y="5" font-size="10px" fill="#FFFFFF" font-family="sans-serif"/></g><g class="node" transform="translate(-520.4088481784535,27.321263825134373)"><circle class="outline" cx="0" cy="0" r="5" fill="#FF756E" stroke="#E06760" stroke-width="2px"/><text text-anchor="middle" pointer-events="none" y="5" font-size="10px" fill="#FFFFFF" font-family="sans-serif"/></g><g class="node" transform="translate(-480.95088042313836,62.949338667521694)"><circle class="outline" cx="0" cy="0" r="5" fill="#FF756E" stroke="#E06760" stroke-width="2px"/><text text-anchor="middle" pointer-events="none" y="5" font-size="10px" fill="#FFFFFF" font-family="sans-serif"/></g><g class="node" transform="translate(-423.6734248304987,45.140846860754145)"><circle class="outline" cx="0" cy="0" r="5" fill="#FF756E" stroke="#E06760" stroke-width="2px"/><text text-anchor="middle" pointer-events="none" y="5" font-size="10px" fill="#FFFFFF" font-family="sans-serif"/></g><g class="node" transform="translate(-543.205321154763,94.03306054602753)"><circle class="outline" cx="0" cy="0" r="5" fill="#FF756E" stroke="#E06760" stroke-width="2px"/><text text-anchor="middle" pointer-events="none" y="5" font-size="10px" fill="#FFFFFF" font-family="sans-serif"/></g><g class="node" transform="translate(-503.7576684977311,127.76692002702151)"><circle class="outline" cx="0" cy="0" r="5" fill="#FF756E" stroke="#E06760" stroke-width="2px"/><text text-anchor="middle" pointer-events="none" y="5" font-size="10px" fill="#FFFFFF" font-family="sans-serif"/></g><g class="node" transform="translate(-525.7308432546481,228.2634992298609)"><circle class="outline" cx="0" cy="0" r="5" fill="#FF756E" stroke="#E06760" stroke-width="2px"/><text text-anchor="middle" pointer-events="none" y="5" font-size="10px" fill="#FFFFFF" font-family="sans-serif"/></g><g class="node" transform="translate(-278.18464551018036,250.04075132853959)"><circle class="outline" cx="0" cy="0" r="5" fill="#FF756E" stroke="#E06760" stroke-width="2px"/><text text-anchor="middle" pointer-events="none" y="5" font-size="10px" fill="#FFFFFF" font-family="sans-serif"/></g><g class="node" transform="translate(-237.39094424857092,199.02291554648357)"><circle class="outline" cx="0" cy="0" r="5" fill="#FF756E" stroke="#E06760" stroke-width="2px"/><text text-anchor="middle" pointer-events="none" y="5" font-size="10px" fill="#FFFFFF" font-family="sans-serif"/></g><g class="node" transform="translate(-541.8049896893659,170.0304547381456)"><circle class="outline" cx="0" cy="0" r="5" fill="#FF756E" stroke="#E06760" stroke-width="2px"/><text text-anchor="middle" pointer-events="none" y="5" font-size="10px" fill="#FFFFFF" font-family="sans-serif"/></g><g class="node" transform="translate(-470.26952417072135,303.2372136653685)"><circle class="outline" cx="0" cy="0" r="5" fill="#FF756E" stroke="#E06760" stroke-width="2px"/><text text-anchor="middle" pointer-events="none" y="5" font-size="10px" fill="#FFFFFF" font-family="sans-serif"/></g><g class="node" transform="translate(-201.89961467888378,430.95262654951557)"><circle class="outline" cx="0" cy="0" r="5" fill="#FF756E" stroke="#E06760" stroke-width="2px"/><text text-anchor="middle" pointer-events="none" y="5" font-size="10px" fill="#FFFFFF" font-family="sans-serif"/></g><g class="node" transform="translate(-220.57995057686907,486.9642626727879)"><circle class="outline" cx="0" cy="0" r="5" fill="#FF756E" stroke="#E06760" stroke-width="2px"/><text text-anchor="middle" pointer-events="none" y="5" font-size="10px" fill="#FFFFFF" font-family="sans-serif"/></g><g class="node" transform="translate(-157.14956361092737,479.09780722363706)"><circle class="outline" cx="0" cy="0" r="5" fill="#FF756E" stroke="#E06760" stroke-width="2px"/><text text-anchor="middle" pointer-events="none" y="5" font-size="10px" fill="#FFFFFF" font-family="sans-serif"/></g><g class="node" transform="translate(-127.43306139487817,430.05597537276856)"><circle class="outline" cx="0" cy="0" r="5" fill="#FF756E" stroke="#E06760" stroke-width="2px"/><text text-anchor="middle" pointer-events="none" y="5" font-size="10px" fill="#FFFFFF" font-family="sans-serif"/></g><g class="node" transform="translate(-270.1379057641849,452.56012731027175)"><circle class="outline" cx="0" cy="0" r="5" fill="#FF756E" stroke="#E06760" stroke-width="2px"/><text text-anchor="middle" pointer-events="none" y="5" font-size="10px" fill="#FFFFFF" font-family="sans-serif"/></g><g class="node" transform="translate(-113.78124067306554,-34.35625235774516)"><circle class="outline" cx="0" cy="0" r="5" fill="#FF756E" stroke="#E06760" stroke-width="2px"/><text text-anchor="middle" pointer-events="none" y="5" font-size="10px" fill="#FFFFFF" font-family="sans-serif"/></g><g class="node" transform="translate(-119.3249231254183,31.3672304832641)"><circle class="outline" cx="0" cy="0" r="5" fill="#FF756E" stroke="#E06760" stroke-width="2px"/><text text-anchor="middle" pointer-events="none" y="5" font-size="10px" fill="#FFFFFF" font-family="sans-serif"/></g><g class="node" transform="translate(-111.73240858288513,-92.15686539069794)"><circle class="outline" cx="0" cy="0" r="5" fill="#FF756E" stroke="#E06760" stroke-width="2px"/><text text-anchor="middle" pointer-events="none" y="5" font-size="10px" fill="#FFFFFF" font-family="sans-serif"/></g><g class="node" transform="translate(-50.46588302696002,-49.17636485063227)"><circle class="outline" cx="0" cy="0" r="5" fill="#FF756E" stroke="#E06760" stroke-width="2px"/><text text-anchor="middle" pointer-events="none" y="5" font-size="10px" fill="#FFFFFF" font-family="sans-serif"/></g><g class="node" transform="translate(7.2436287836323725,164.91690692154623)"><circle class="outline" cx="0" cy="0" r="5" fill="#FF756E" stroke="#E06760" stroke-width="2px"/><text text-anchor="middle" pointer-events="none" y="5" font-size="10px" fill="#FFFFFF" font-family="sans-serif"/></g><g class="node" transform="translate(19.71865883487066,-39.12694908252585)"><circle class="outline" cx="0" cy="0" r="5" fill="#FF756E" stroke="#E06760" stroke-width="2px"/><text text-anchor="middle" pointer-events="none" y="5" font-size="10px" fill="#FFFFFF" font-family="sans-serif"/></g><g class="node" transform="translate(-11.500714429474277,-100.9005999165196)"><circle class="outline" cx="0" cy="0" r="5" fill="#FF756E" stroke="#E06760" stroke-width="2px"/><text text-anchor="middle" pointer-events="none" y="5" font-size="10px" fill="#FFFFFF" font-family="sans-serif"/></g><g class="node" transform="translate(-64.55695140986262,-124.18629391017801)"><circle class="outline" cx="0" cy="0" r="5" fill="#FF756E" stroke="#E06760" stroke-width="2px"/><text text-anchor="middle" pointer-events="none" y="5" font-size="10px" fill="#FFFFFF" font-family="sans-serif"/></g><g class="node" transform="translate(169.6560189436521,-125.65786303242504)"><circle class="outline" cx="0" cy="0" r="32.5" fill="#68BDF6" stroke="#5CA8DB" stroke-width="2px"/><text text-anchor="middle" pointer-events="none" y="0" font-size="10px" fill="#FFFFFF" font-family="sans-serif"> Ganga</text><text text-anchor="middle" pointer-events="none" y="10" font-size="10px" fill="#FFFFFF" font-family="sans-serif"> Prasad Birla</text></g><g class="node" transform="translate(315.28005969660825,154.83034770504364)"><circle class="outline" cx="0" cy="0" r="5" fill="#FF756E" stroke="#E06760" stroke-width="2px"/><text text-anchor="middle" pointer-events="none" y="5" font-size="10px" fill="#FFFFFF" font-family="sans-serif"/></g><g class="node" transform="translate(402.0221869549587,177.3872615367254)"><circle class="outline" cx="0" cy="0" r="5" fill="#FF756E" stroke="#E06760" stroke-width="2px"/><text text-anchor="middle" pointer-events="none" y="5" font-size="10px" fill="#FFFFFF" font-family="sans-serif"/></g><g class="node" transform="translate(420.25873007164677,-28.231854078345823)"><circle class="outline" cx="0" cy="0" r="5" fill="#FF756E" stroke="#E06760" stroke-width="2px"/><text text-anchor="middle" pointer-events="none" y="5" font-size="10px" fill="#FFFFFF" font-family="sans-serif"/></g><g class="node" transform="translate(357.9658825112337,206.54615892982864)"><circle class="outline" cx="0" cy="0" r="5" fill="#FF756E" stroke="#E06760" stroke-width="2px"/><text text-anchor="middle" pointer-events="none" y="5" font-size="10px" fill="#FFFFFF" font-family="sans-serif"/></g><g class="node" transform="translate(447.4854033392913,44.29461177060807)"><circle class="outline" cx="0" cy="0" r="5" fill="#FF756E" stroke="#E06760" stroke-width="2px"/><text text-anchor="middle" pointer-events="none" y="5" font-size="10px" fill="#FFFFFF" font-family="sans-serif"/></g><g class="node" transform="translate(253.74562123928027,-72.1733231545819)"><circle class="outline" cx="0" cy="0" r="5" fill="#FF756E" stroke="#E06760" stroke-width="2px"/><text text-anchor="middle" pointer-events="none" y="5" font-size="10px" fill="#FFFFFF" font-family="sans-serif"/></g><g class="node" transform="translate(497.8597395337289,181.39739014470604)"><circle class="outline" cx="0" cy="0" r="32.5" fill="#68BDF6" stroke="#5CA8DB" stroke-width="2px"/><text text-anchor="middle" pointer-events="none" y="-5" font-size="10px" fill="#FFFFFF" font-family="sans-serif"> Aditya</text><text text-anchor="middle" pointer-events="none" y="5" font-size="10px" fill="#FFFFFF" font-family="sans-serif"> Vikram</text><text text-anchor="middle" pointer-events="none" y="15" font-size="10px" fill="#FFFFFF" font-family="sans-serif"> Birla</text></g><g class="node" transform="translate(294.11644851939684,466.39343409230037)"><circle class="outline" cx="0" cy="0" r="32.5" fill="#68BDF6" stroke="#5CA8DB" stroke-width="2px"/><text text-anchor="middle" pointer-events="none" y="-5" font-size="10px" fill="#FFFFFF" font-family="sans-serif"> Jugal</text><text text-anchor="middle" pointer-events="none" y="5" font-size="10px" fill="#FFFFFF" font-family="sans-serif"> Kishore</text><text text-anchor="middle" pointer-events="none" y="15" font-size="10px" fill="#FFFFFF" font-family="sans-serif"> Birla</text></g><g class="node" transform="translate(175.02917826250177,347.35714550777044)"><circle class="outline" cx="0" cy="0" r="32.5" fill="#68BDF6" stroke="#5CA8DB" stroke-width="2px"/><text text-anchor="middle" pointer-events="none" y="0" font-size="10px" fill="#FFFFFF" font-family="sans-serif"> Gajanan</text><text text-anchor="middle" pointer-events="none" y="10" font-size="10px" fill="#FFFFFF" font-family="sans-serif"> Birla</text></g><g class="node" transform="translate(31.76092060606112,368.55167448268463)"><circle class="outline" cx="0" cy="0" r="32.5" fill="#68BDF6" stroke="#5CA8DB" stroke-width="2px"/><text text-anchor="middle" pointer-events="none" y="0" font-size="10px" fill="#FFFFFF" font-family="sans-serif"> Madhav</text><text text-anchor="middle" pointer-events="none" y="10" font-size="10px" fill="#FFFFFF" font-family="sans-serif"> Prasad Birla</text></g><g class="node" transform="translate(350.4726754047519,-45.212738993860384)"><circle class="outline" cx="0" cy="0" r="32.5" fill="#68BDF6" stroke="#5CA8DB" stroke-width="2px"/><text text-anchor="middle" pointer-events="none" y="5" font-size="10px" fill="#FFFFFF" font-family="sans-serif"> CHANDRA…</text></g><g class="node" transform="translate(516.9027029692818,-34.48731438084664)"><circle class="outline" cx="0" cy="0" r="32.5" fill="#68BDF6" stroke="#5CA8DB" stroke-width="2px"/><text text-anchor="middle" pointer-events="none" y="-5" font-size="10px" fill="#FFFFFF" font-family="sans-serif"> KUMAR</text><text text-anchor="middle" pointer-events="none" y="5" font-size="10px" fill="#FFFFFF" font-family="sans-serif"> MANGALAM</text><text text-anchor="middle" pointer-events="none" y="15" font-size="10px" fill="#FFFFFF" font-family="sans-serif"> BIRLA</text></g><g class="node" transform="translate(579.4389783799087,142.153259720603)"><circle class="outline" cx="0" cy="0" r="5" fill="#FF756E" stroke="#E06760" stroke-width="2px"/><text text-anchor="middle" pointer-events="none" y="5" font-size="10px" fill="#FFFFFF" font-family="sans-serif"/></g><g class="node" transform="translate(553.8698835480857,90.29452944909293)"><circle class="outline" cx="0" cy="0" r="5" fill="#FF756E" stroke="#E06760" stroke-width="2px"/><text text-anchor="middle" pointer-events="none" y="5" font-size="10px" fill="#FFFFFF" font-family="sans-serif"/></g><g class="node" transform="translate(615.2402077048147,75.52256378847092)"><circle class="outline" cx="0" cy="0" r="5" fill="#FF756E" stroke="#E06760" stroke-width="2px"/><text text-anchor="middle" pointer-events="none" y="5" font-size="10px" fill="#FFFFFF" font-family="sans-serif"/></g><g class="node" transform="translate(632.0771698781308,141.7333041674947)"><circle class="outline" cx="0" cy="0" r="5" fill="#FF756E" stroke="#E06760" stroke-width="2px"/><text text-anchor="middle" pointer-events="none" y="5" font-size="10px" fill="#FFFFFF" font-family="sans-serif"/></g><g class="node" transform="translate(615.6488106904769,10.550620983920979)"><circle class="outline" cx="0" cy="0" r="5" fill="#FF756E" stroke="#E06760" stroke-width="2px"/><text text-anchor="middle" pointer-events="none" y="5" font-size="10px" fill="#FFFFFF" font-family="sans-serif"/></g><g class="node" transform="translate(668.6546015386916,36.18898279569692)"><circle class="outline" cx="0" cy="0" r="5" fill="#FF756E" stroke="#E06760" stroke-width="2px"/><text text-anchor="middle" pointer-events="none" y="5" font-size="10px" fill="#FFFFFF" font-family="sans-serif"/></g><g class="node" transform="translate(568.7900379980078,-190.03452854198562)"><circle class="outline" cx="0" cy="0" r="5" fill="#FF756E" stroke="#E06760" stroke-width="2px"/><text text-anchor="middle" pointer-events="none" y="5" font-size="10px" fill="#FFFFFF" font-family="sans-serif"/></g><g class="node" transform="translate(722.0406891776626,-1.6471711915770484)"><circle class="outline" cx="0" cy="0" r="5" fill="#FF756E" stroke="#E06760" stroke-width="2px"/><text text-anchor="middle" pointer-events="none" y="5" font-size="10px" fill="#FFFFFF" font-family="sans-serif"/></g><g class="node" transform="translate(477.4295993606837,-171.52082166667287)"><circle class="outline" cx="0" cy="0" r="5" fill="#FF756E" stroke="#E06760" stroke-width="2px"/><text text-anchor="middle" pointer-events="none" y="5" font-size="10px" fill="#FFFFFF" font-family="sans-serif"/></g><g class="node" transform="translate(626.4784698204619,-77.75414859475488)"><circle class="outline" cx="0" cy="0" r="5" fill="#FF756E" stroke="#E06760" stroke-width="2px"/><text text-anchor="middle" pointer-events="none" y="5" font-size="10px" fill="#FFFFFF" font-family="sans-serif"/></g><g class="node" transform="translate(528.0559480871229,-150.53828582754974)"><circle class="outline" cx="0" cy="0" r="5" fill="#FF756E" stroke="#E06760" stroke-width="2px"/><text text-anchor="middle" pointer-events="none" y="5" font-size="10px" fill="#FFFFFF" font-family="sans-serif"/></g><g class="node" transform="translate(660.7559574611197,-123.69010500489328)"><circle class="outline" cx="0" cy="0" r="5" fill="#FF756E" stroke="#E06760" stroke-width="2px"/><text text-anchor="middle" pointer-events="none" y="5" font-size="10px" fill="#FFFFFF" font-family="sans-serif"/></g><g class="node" transform="translate(712.946782990511,-113.11542072972294)"><circle class="outline" cx="0" cy="0" r="5" fill="#FF756E" stroke="#E06760" stroke-width="2px"/><text text-anchor="middle" pointer-events="none" y="5" font-size="10px" fill="#FFFFFF" font-family="sans-serif"/></g><g class="node" transform="translate(599.362699562921,-139.30162723015206)"><circle class="outline" cx="0" cy="0" r="5" fill="#FF756E" stroke="#E06760" stroke-width="2px"/><text text-anchor="middle" pointer-events="none" y="5" font-size="10px" fill="#FFFFFF" font-family="sans-serif"/></g><g class="node" transform="translate(510.3910129279975,-227.03774074945136)"><circle class="outline" cx="0" cy="0" r="5" fill="#FF756E" stroke="#E06760" stroke-width="2px"/><text text-anchor="middle" pointer-events="none" y="5" font-size="10px" fill="#FFFFFF" font-family="sans-serif"/></g><g class="node" transform="translate(429.14635744810766,102.09333840022937)"><circle class="outline" cx="0" cy="0" r="5" fill="#FF756E" stroke="#E06760" stroke-width="2px"/><text text-anchor="middle" pointer-events="none" y="5" font-size="10px" fill="#FFFFFF" font-family="sans-serif"/></g><g class="node" transform="translate(626.2865368978422,-207.92945091759216)"><circle class="outline" cx="0" cy="0" r="5" fill="#FF756E" stroke="#E06760" stroke-width="2px"/><text text-anchor="middle" pointer-events="none" y="5" font-size="10px" fill="#FFFFFF" font-family="sans-serif"/></g><g class="node" transform="translate(570.4889978301974,-242.07297359796365)"><circle class="outline" cx="0" cy="0" r="5" fill="#FF756E" stroke="#E06760" stroke-width="2px"/><text text-anchor="middle" pointer-events="none" y="5" font-size="10px" fill="#FFFFFF" font-family="sans-serif"/></g><g class="node" transform="translate(666.6674220238141,-33.40514898127937)"><circle class="outline" cx="0" cy="0" r="5" fill="#FF756E" stroke="#E06760" stroke-width="2px"/><text text-anchor="middle" pointer-events="none" y="5" font-size="10px" fill="#FFFFFF" font-family="sans-serif"/></g><g class="node" transform="translate(672.0114975258624,-176.24495976916833)"><circle class="outline" cx="0" cy="0" r="5" fill="#FF756E" stroke="#E06760" stroke-width="2px"/><text text-anchor="middle" pointer-events="none" y="5" font-size="10px" fill="#FFFFFF" font-family="sans-serif"/></g><g class="node" transform="translate(712.9822494035669,61.6869345074377)"><circle class="outline" cx="0" cy="0" r="5" fill="#FF756E" stroke="#E06760" stroke-width="2px"/><text text-anchor="middle" pointer-events="none" y="5" font-size="10px" fill="#FFFFFF" font-family="sans-serif"/></g><g class="node" transform="translate(719.2585229485538,-58.246033910885494)"><circle class="outline" cx="0" cy="0" r="5" fill="#FF756E" stroke="#E06760" stroke-width="2px"/><text text-anchor="middle" pointer-events="none" y="5" font-size="10px" fill="#FFFFFF" font-family="sans-serif"/></g><g class="node" transform="translate(672.703620803289,106.1342177916767)"><circle class="outline" cx="0" cy="0" r="5" fill="#FF756E" stroke="#E06760" stroke-width="2px"/><text text-anchor="middle" pointer-events="none" y="5" font-size="10px" fill="#FFFFFF" font-family="sans-serif"/></g><g class="node" transform="translate(120.04877724042748,438.517399614126)"><circle class="outline" cx="0" cy="0" r="32.5" fill="#68BDF6" stroke="#5CA8DB" stroke-width="2px"/><text text-anchor="middle" pointer-events="none" y="-5" font-size="10px" fill="#FFFFFF" font-family="sans-serif"> Ashok</text><text text-anchor="middle" pointer-events="none" y="5" font-size="10px" fill="#FFFFFF" font-family="sans-serif"> Vardhan</text><text text-anchor="middle" pointer-events="none" y="15" font-size="10px" fill="#FFFFFF" font-family="sans-serif"> Birla</text></g><g class="node" transform="translate(349.31985308044153,362.6599021106048)"><circle class="outline" cx="0" cy="0" r="32.5" fill="#68BDF6" stroke="#5CA8DB" stroke-width="2px"/><text text-anchor="middle" pointer-events="none" y="5" font-size="10px" fill="#FFFFFF" font-family="sans-serif"> YASHOVA…</text></g><g class="node" transform="translate(235.21107237101037,-210.50740938190165)"><circle class="outline" cx="0" cy="0" r="5" fill="#FF756E" stroke="#E06760" stroke-width="2px"/><text text-anchor="middle" pointer-events="none" y="5" font-size="10px" fill="#FFFFFF" font-family="sans-serif"/></g><g class="node" transform="translate(370.977616861582,-181.4384678634567)"><circle class="outline" cx="0" cy="0" r="5" fill="#FF756E" stroke="#E06760" stroke-width="2px"/><text text-anchor="middle" pointer-events="none" y="5" font-size="10px" fill="#FFFFFF" font-family="sans-serif"/></g><g class="node" transform="translate(381.7925283226457,-240.60759069890975)"><circle class="outline" cx="0" cy="0" r="5" fill="#FF756E" stroke="#E06760" stroke-width="2px"/><text text-anchor="middle" pointer-events="none" y="5" font-size="10px" fill="#FFFFFF" font-family="sans-serif"/></g><g class="node" transform="translate(311.537009291853,-192.2550183963647)"><circle class="outline" cx="0" cy="0" r="5" fill="#FF756E" stroke="#E06760" stroke-width="2px"/><text text-anchor="middle" pointer-events="none" y="5" font-size="10px" fill="#FFFFFF" font-family="sans-serif"/></g><g class="node" transform="translate(257.748021059625,-159.16603979506309)"><circle class="outline" cx="0" cy="0" r="5" fill="#FF756E" stroke="#E06760" stroke-width="2px"/><text text-anchor="middle" pointer-events="none" y="5" font-size="10px" fill="#FFFFFF" font-family="sans-serif"/></g><g class="node" transform="translate(331.28618137897723,-261.2002642468859)"><circle class="outline" cx="0" cy="0" r="5" fill="#FF756E" stroke="#E06760" stroke-width="2px"/><text text-anchor="middle" pointer-events="none" y="5" font-size="10px" fill="#FFFFFF" font-family="sans-serif"/></g><g class="node" transform="translate(276.9989536292194,-248.81544265634594)"><circle class="outline" cx="0" cy="0" r="5" fill="#FF756E" stroke="#E06760" stroke-width="2px"/><text text-anchor="middle" pointer-events="none" y="5" font-size="10px" fill="#FFFFFF" font-family="sans-serif"/></g></g></svg>